<?xml version="1.0" encoding="UTF-8" standalone="no"?>
<svg
   xmlns:dc="http://purl.org/dc/elements/1.1/"
   xmlns:cc="http://creativecommons.org/ns#"
   xmlns:rdf="http://www.w3.org/1999/02/22-rdf-syntax-ns#"
   xmlns:svg="http://www.w3.org/2000/svg"
   xmlns="http://www.w3.org/2000/svg"
   xmlns:sodipodi="http://sodipodi.sourceforge.net/DTD/sodipodi-0.dtd"
   xmlns:inkscape="http://www.inkscape.org/namespaces/inkscape"
   width="191.65771mm"
   height="188.21457mm"
   viewBox="0 0 191.65771 188.21457"
   version="1.1"
   id="svg893"
   sodipodi:docname="logo-redellipse-outset.svg"
   inkscape:version="1.0.1 (3bc2e813f5, 2020-09-07, custom)">
  <defs
     id="defs887" />
  <sodipodi:namedview
     id="base"
     pagecolor="#ffffff"
     bordercolor="#666666"
     borderopacity="1.0"
     inkscape:pageopacity="0.0"
     inkscape:pageshadow="2"
     inkscape:zoom="1.4"
     inkscape:cx="-66.80427"
     inkscape:cy="368.11374"
     inkscape:document-units="mm"
     inkscape:current-layer="layer1"
     inkscape:document-rotation="0"
     showgrid="false"
     inkscape:object-paths="true"
     inkscape:snap-intersection-paths="true"
     inkscape:snap-smooth-nodes="true"
     inkscape:snap-midpoints="true"
     inkscape:window-width="2560"
     inkscape:window-height="1416"
     inkscape:window-x="0"
     inkscape:window-y="0"
     inkscape:window-maximized="0"
     fit-margin-top="0"
     fit-margin-left="0"
     fit-margin-right="0"
     fit-margin-bottom="0" />
  <metadata
     id="metadata890">
    <rdf:RDF>
      <cc:Work
         rdf:about="">
        <dc:format>image/svg+xml</dc:format>
        <dc:type
           rdf:resource="http://purl.org/dc/dcmitype/StillImage" />
        <dc:title />
      </cc:Work>
    </rdf:RDF>
  </metadata>
  <g
     inkscape:label="Layer 1"
     inkscape:groupmode="layer"
     id="layer1"
     transform="translate(-12.844288,1.2612851)">
    <path
       id="path1460"
       style="opacity:1;fill:#ffc107;stroke-width:0.680503"
       d="M 70.791016,3.671875 C 52.576748,11.531718 36.943923,25.239063 26.830985,42.314391 17.792094,57.384067 13.085118,74.999546 13.395668,92.571783 c 0.230556,17.548757 5.459721,34.988677 14.921069,49.770827 4.211036,6.61674 9.247355,12.70497 14.948888,18.09098 0.58698,-0.13641 0.804682,-0.71838 0.648437,-1.25976 -0.490933,-5.0204 -0.363377,-10.0741 0.09961,-15.07031 -9.65715,-10.66466 -16.28361,-24.01955 -19.00586,-38.14258 C 23.513632,98.205612 23.284873,90.079852 23.969745,82.175841 24.974573,70.633903 27.927932,59.251407 32.753906,48.695312 39.327517,34.258117 49.329302,21.311021 61.750231,11.388853 64.797799,8.9488346 67.981147,6.6784885 71.287109,4.6015625 71.473984,4.22789 72.630115,3.3357638 71.624907,3.5997348 71.346944,3.6237815 71.06898,3.6478283 70.791016,3.671875 Z M 127.66602,18.458984 C 104.89733,19.577509 82.907511,30.835287 68.421013,48.393712 60.011607,58.571955 54.267408,71.090916 52.832031,84.269531 c -0.672138,6.489994 -0.530322,13.17176 1.256949,19.471319 0.182649,0.67453 1.144896,0.53445 1.245004,-0.1178 1.898697,-4.489583 4.095097,-8.825701 6.3916,-13.130615 2.819463,-5.257363 5.943144,-10.367647 9.194338,-15.379154 1.561229,-5.495616 4.072667,-10.854363 7.253906,-15.628906 5.366653,-8.045696 12.765156,-14.761678 21.411197,-19.165835 1.761655,-0.753657 2.939035,-2.324609 4.401405,-3.496453 7.47983,-6.640768 15.60079,-12.619437 24.31125,-17.586436 0.2477,-0.242257 1.66886,-0.829379 1.02543,-0.809742 -0.55237,0.01103 -1.10473,0.02205 -1.65709,0.03308 z m 70.03125,45.591797 c -2.4115,16.009885 -8.1683,31.309502 -15.52941,45.677299 -1.41415,2.7998 -3.02748,5.48892 -4.43231,8.28771 -5.29476,14.67075 -15.0298,27.61813 -27.55977,36.87679 -11.35136,11.97476 -24.19443,22.72246 -38.77539,30.49023 -0.54036,0.32552 -1.08073,0.65104 -1.62109,0.97657 6.30072,0.06 12.59088,-0.73601 18.75208,-2.01515 15.66395,-3.31186 30.44966,-10.66863 42.52296,-21.1886 12.11719,-10.48842 21.55899,-24.05401 27.06506,-39.11255 4.43464,-12.03747 6.43671,-24.991397 5.67794,-37.804919 -0.49942,-8.080493 -2.47336,-16.03337 -5.55244,-23.510795 -0.28665,-1.140188 -0.32806,-0.02094 -0.42853,0.554205 -0.0397,0.256403 -0.0794,0.512807 -0.1191,0.76921 z" />
    <path
       id="path901"
       style="fill:#5a9cfe;stroke-width:0.350228"
       d="m -82.100208,49.981847 c -12.95902,0.0032 -25.746342,3.374278 -37.146252,9.27907 a 73.767612,73.767612 0 0 0 -37.08992,64.003143 73.767612,73.767612 0 0 0 6.719,30.75953 c 9.92028,10.53965 24.79253,16.03291 39.35233,15.71127 24.905892,-2.2e-4 45.095572,-21.50032 45.095162,-46.4062 3e-4,-9.69604 -7.85958,-17.55643 -17.55562,-17.55613 -9.69559,3.3e-4 -10.04676,8.24346 -10.04646,17.93905 3.5e-4,9.69511 0.11723,10.14845 9.04291,10.6206 2.86695,0.15164 5.85949,4.61664 7.3722,2.56317 -7.37333,10.62138 -20.9784,20.2546 -33.908192,20.25519 -18.67953,1.6e-4 -33.82255,-15.14237 -33.8224,-33.82188 -5.9e-4,-0.085 -0.001,-0.17032 -0.001,-0.25528 -3e-5,-31.132238 25.23773,-56.370015 56.369982,-56.369986 31.13224,-2.9e-5 56.37,25.237748 56.36998,56.369986 -2.8e-4,0.0634 -6.2e-4,0.12651 -0.001,0.18965 -0.0814,33.80798 -21.41497,62.60476 -51.33564,73.76849 a 73.767612,73.767612 0 0 0 0.11627,5.2e-4 73.767612,73.767612 0 0 0 73.7617797,-72.86002 c 0.003,-0.30241 0.006,-0.60488 0.006,-0.90796 10e-6,-0.62479 -0.008,-1.24759 -0.0232,-1.86863 a 73.767612,73.767612 0 0 0 -0.002,-0.0568 c -0.0151,-0.58649 -0.0373,-1.17093 -0.0661,-1.7539 a 73.767612,73.767612 0 0 0 -5.2e-4,-0.01 73.767612,73.767612 0 0 0 -0.0103,-0.19844 c -0.0269,-0.5149 -0.0602,-1.02794 -0.0977,-1.53997 a 73.767612,73.767612 0 0 0 -0.0341,-0.44286 c -0.0351,-0.44259 -0.0749,-0.88415 -0.11781,-1.32448 a 73.767612,73.767612 0 0 0 -0.0563,-0.55811 73.767612,73.767612 0 0 0 -0.005,-0.0413 c -0.0405,-0.38356 -0.0848,-0.76597 -0.13126,-1.14774 a 73.767612,73.767612 0 0 0 -0.11007,-0.86093 c -0.0356,-0.26664 -0.0731,-0.53269 -0.11162,-0.79841 a 73.767612,73.767612 0 0 0 -0.18243,-1.18959 c -6.4e-4,-0.004 -0.001,-0.008 -0.002,-0.0119 -0.0249,-0.1537 -0.0506,-0.30707 -0.0765,-0.46044 a 73.767612,73.767612 0 0 0 -0.2439097,-1.36944 73.767612,73.767612 0 0 0 -0.001,-0.004 c -0.032,-0.1702 -0.0645,-0.34026 -0.0977,-0.51004 a 73.767612,73.767612 0 0 0 -0.23513,-1.15446 c -0.0534,-0.25127 -0.10787,-0.5021 -0.16381,-0.75241 a 73.767612,73.767612 0 0 0 -0.19327,-0.84544 c -3.3e-4,-0.001 -7.1e-4,-0.003 -10e-4,-0.004 -0.09,-0.38101 -0.18213,-0.76129 -0.27802,-1.13998 a 73.767612,73.767612 0 0 0 -0.13125,-0.51108 c -0.12462,-0.47758 -0.25207,-0.95411 -0.38604,-1.42783 a 73.767612,73.767612 0 0 0 -0.0387,-0.13746 c -0.002,-0.007 -0.004,-0.0131 -0.006,-0.0196 -8.74975,-30.679933 -36.99017,-53.142439 -70.47773,-53.142622 h -0.0176 z" />
    <path
       id="path2725"
       style="fill:#dc3545;stroke-width:0.324591"
       d="m 132.03516,18.4375 c -9.39535,4.913572 -18.09166,11.10821 -26.06461,18.077329 -0.17878,0.324605 -1.45152,1.272318 -0.61214,1.016981 1.83018,-0.328055 3.53511,-1.097649 5.29784,-1.522044 9.56387,-2.570895 19.69101,-2.610787 29.28906,-0.146485 9.14795,2.35184 17.80436,7.159152 24.69494,13.704273 8.25281,7.785618 14.13324,18.014252 16.5098,29.13614 1.57487,7.080788 1.64412,14.42124 0.77793,21.601946 -0.29394,2.64566 -0.80715,5.3476 -1.33144,7.98377 0.093,0.40733 -0.18607,1.87543 0.36132,0.9872 1.01082,-1.08057 1.45977,-2.536 2.16086,-3.81864 6.33209,-12.987185 11.22232,-26.781274 13.4594,-41.088862 0.17256,-1.384789 0.46692,-2.800691 0.50316,-4.175842 -7.96805,-17.043953 -22.80672,-30.761337 -40.47669,-37.255135 -7.80692,-2.911337 -16.11725,-4.441223 -24.44639,-4.567037 l -0.088,0.04749 z m -2.3125,55.748047 c -2.93587,0.0367 -6.01509,1.644542 -7.08235,4.498542 -1.64372,3.721887 -1.46484,7.88876 -1.56858,11.868127 -0.005,2.728132 -0.11795,5.49825 0.41329,8.185139 0.32237,1.214043 1.36744,2.185915 2.62455,2.342195 2.26691,0.63065 4.6998,0.23206 6.9438,0.93713 1.74489,0.73469 3.08391,2.20994 4.90366,2.80168 0.57354,-0.2038 1.04513,-0.89681 1.64649,-0.85156 -0.0489,1.35278 -1.16172,2.24699 -1.875,3.30078 -5.89771,7.4445 -13.78087,13.44387 -22.79054,16.56765 -5.37042,1.81913 -11.21547,2.20433 -16.76612,1.02159 -9.045741,-1.80796 -17.296503,-7.52168 -22.166001,-15.29237 -4.0309,-6.3226 -5.801453,-13.972538 -5.246154,-21.430086 0.08312,-2.436525 0.46208,-4.918076 0.782954,-7.354214 -0.05099,-0.387419 0.295127,-1.839131 -0.246177,-0.912441 -1.47075,1.845248 -2.529882,3.975411 -3.761673,5.980904 -3.927581,6.776026 -7.441078,13.791773 -10.478168,21.010767 3.511531,9.92473 10.974923,18.21882 20.129191,23.3099 9.875123,5.57245 21.532727,7.81435 32.784678,6.59716 9.38674,-1.04751 18.27526,-5.42385 25.08372,-11.92894 9.48423,-8.96065 15.0399,-22.05586 14.48288,-35.130469 -0.51195,-6.940637 -5.76559,-13.236484 -12.51681,-14.952472 -1.72253,-0.46151 -3.51654,-0.651168 -5.29764,-0.569012 z M 44.890625,146.3457 c -0.372042,5.22746 -0.339885,10.51826 0.439453,15.70313 0.309751,0.87119 1.276988,1.2285 1.868807,1.88341 14.900645,12.63069 33.780132,20.48747 53.245975,22.12713 2.14901,0.15397 4.31017,0.36492 6.46334,0.29415 1.14875,-0.30233 2.12287,-1.0368 3.20701,-1.50451 11.95113,-6.20984 22.70064,-14.52264 32.43948,-23.78065 0.11028,-0.35604 1.22532,-1.44278 0.40448,-1.12168 -1.47653,0.28537 -2.6648,1.28384 -4.02457,1.87648 -13.83881,7.02851 -29.71174,9.83248 -45.069878,8.03079 -13.727033,-1.5612 -27.142545,-6.88201 -38.228003,-15.15864 -3.825881,-2.85368 -7.377714,-6.06227 -10.66211,-9.52343 -0.02799,0.39127 -0.05599,0.78255 -0.08398,1.17382 z" />
    <path
       id="path881"
       style="fill:#ffc107;stroke-width:0.408581"
       d="m 129.99805,73.419922 c -5.54071,0.367538 -10.76078,3.750988 -13.3323,8.676363 -2.82022,5.287386 -2.46755,12.130963 1.02883,17.025186 3.32596,4.856389 9.4062,7.660299 15.25954,6.937219 5.73191,-0.58824 11.00364,-4.43419 13.23107,-9.760463 2.23322,-5.039128 1.69639,-11.201091 -1.4751,-15.725665 -2.71906,-4.051843 -7.31428,-6.765553 -12.18676,-7.129113 -0.83931,-0.08079 -1.68411,-0.06806 -2.52528,-0.02353 z" />
  </g>
</svg>
