<?xml version="1.0" encoding="UTF-8" standalone="no"?>
<svg
   width="335.09415mm"
   height="188.28133mm"
   viewBox="0 0 335.09413 188.28133"
   version="1.1"
   id="svg893"
   sodipodi:docname="logo-redellipse-mvdb-long.svg"
   inkscape:version="1.1 (c4e8f9ed74, 2021-05-24)"
   xmlns:inkscape="http://www.inkscape.org/namespaces/inkscape"
   xmlns:sodipodi="http://sodipodi.sourceforge.net/DTD/sodipodi-0.dtd"
   xmlns="http://www.w3.org/2000/svg"
   xmlns:svg="http://www.w3.org/2000/svg"
   xmlns:rdf="http://www.w3.org/1999/02/22-rdf-syntax-ns#"
   xmlns:cc="http://creativecommons.org/ns#"
   xmlns:dc="http://purl.org/dc/elements/1.1/">
  <defs
     id="defs887">
    <rect
       x="49.105274"
       y="47.05439"
       width="126.19415"
       height="141.15614"
       id="rect835" />
    <rect
       x="49.105274"
       y="47.05439"
       width="126.19415"
       height="141.15614"
       id="rect2503" />
    <rect
       x="49.105274"
       y="47.05439"
       width="126.19415"
       height="141.15614"
       id="rect2579" />
    <rect
       x="49.105274"
       y="47.05439"
       width="126.19415"
       height="141.15614"
       id="rect835-4" />
    <rect
       x="49.105274"
       y="47.05439"
       width="126.19415"
       height="141.15614"
       id="rect2608" />
  </defs>
  <sodipodi:namedview
     id="base"
     pagecolor="#ffffff"
     bordercolor="#666666"
     borderopacity="1.0"
     inkscape:pageopacity="0.0"
     inkscape:pageshadow="2"
     inkscape:zoom="0.49497475"
     inkscape:cx="-16.162441"
     inkscape:cy="170.71578"
     inkscape:document-units="mm"
     inkscape:current-layer="layer1"
     inkscape:document-rotation="0"
     showgrid="false"
     inkscape:object-paths="true"
     inkscape:snap-intersection-paths="true"
     inkscape:snap-smooth-nodes="true"
     inkscape:snap-midpoints="true"
     inkscape:window-width="1920"
     inkscape:window-height="1056"
     inkscape:window-x="0"
     inkscape:window-y="0"
     inkscape:window-maximized="1"
     fit-margin-top="0"
     fit-margin-left="0"
     fit-margin-right="0"
     fit-margin-bottom="0"
     inkscape:pagecheckerboard="0" />
  <metadata
     id="metadata890">
    <rdf:RDF>
      <cc:Work
         rdf:about="">
        <dc:format>image/svg+xml</dc:format>
        <dc:type
           rdf:resource="http://purl.org/dc/dcmitype/StillImage" />
        <dc:title />
      </cc:Work>
    </rdf:RDF>
  </metadata>
  <g
     inkscape:label="Layer 1"
     inkscape:groupmode="layer"
     id="layer1"
     transform="translate(-12.84414,1.261276)">
    <path
       id="path1460"
       style="opacity:1;fill:#ffc107;stroke-width:0.680503"
       d="m 83.213487,-1.261276 c -41.569999,11.45565 -70.36934,49.264961 -70.369347,92.38454 2.5e-5,2.33154 0.08524,4.662347 0.255282,6.987688 0.03096,0.422789 0.06469,0.845273 0.101286,1.267622 0.03472,0.40378 0.07178,0.807466 0.111621,1.210776 l 0.0062,0.0548 v 0.001 c 0.40032,4.00808 1.052821,7.98702 1.953886,11.91297 0.09475,0.4131 0.192272,0.82532 0.292488,1.23714 0.250595,1.02935 0.518467,2.05427 0.803052,3.07474 0.113799,0.40859 0.230107,0.81666 0.349333,1.2237 0.23859,0.81348 0.488182,1.62349 0.748274,2.43034 0.130168,0.40327 0.262925,0.80567 0.398426,1.20717 0.06769,0.20111 0.136136,0.40195 0.205155,0.60254 0.137947,0.40058 0.278431,0.80016 0.42168,1.1989 0.143404,0.39907 0.289536,0.7971 0.438216,1.19424 0.148838,0.39677 0.30014,0.79276 0.454236,1.18752 0.153911,0.39488 0.310602,0.78854 0.469738,1.18133 0.318205,0.78579 0.646531,1.56752 0.98547,2.34455 0.169492,0.38877 0.341618,0.77624 0.516248,1.16273 0.436569,0.9652 0.889209,1.92351 1.35754,2.87372 0.280978,0.57068 0.567608,1.1383 0.859895,1.70326 0.487087,0.94083 0.989905,1.87362 1.507919,2.79776 0.207282,0.36997 0.416723,0.73866 0.628902,1.10587 0.106201,0.18332 0.212977,0.36624 0.320394,0.54881 0.214295,0.36575 0.430949,0.73007 0.650089,1.09295 0.109718,0.18128 0.220351,0.36198 0.331246,0.54261 0.332927,0.54167 0.671285,1.07995 1.014925,1.61489 0.228741,0.35651 0.459535,0.71159 0.692981,1.06505 0.233805,0.35382 0.470002,0.70608 0.708484,1.05678 0.119052,0.1752 0.238947,0.35013 0.359151,0.52452 0.240831,0.34884 0.483718,0.69617 0.729155,1.04179 0.735783,1.03722 1.492113,2.05936 2.268595,3.06648 0.258783,0.33574 0.519681,0.67026 0.782898,1.00252 0.526462,0.66464 1.062184,1.32208 1.606103,1.97249 0.272065,0.32499 0.545819,0.64815 0.822173,0.96946 0.138128,0.16075 0.276807,0.32114 0.415995,0.4811 0.278314,0.31957 0.558763,0.63758 0.841292,0.95343 0.28261,0.31572 0.567438,0.62908 0.854212,0.94103 0.286904,0.31224 0.576108,0.62281 0.86713,0.93121 0.290815,0.30839 0.583617,0.61481 0.878498,0.91932 0.147463,0.15197 0.295418,0.30326 0.443902,0.45424 0.148635,0.15129 0.297873,0.30198 0.447519,0.45217 0.298633,0.30067 0.599157,0.59938 0.901753,0.89607 h 10e-4 c 0.15098,0.14814 0.30279,0.29578 0.45475,0.44286 h 10e-4 c 0.152151,0.14724 0.304723,0.29397 0.457853,0.44029 h 10e-4 c 0.15294,0.14611 0.306538,0.29202 0.460436,0.43718 h 10e-4 c 0.154091,0.14543 0.308994,0.29025 0.464053,0.4346 h 0.001 c 0.310372,0.28832 0.622731,0.57469 0.936894,0.85886 0.143524,0.1297 0.290291,0.25565 0.434597,0.38447 a 55.855957,106.69942 35.702082 0 1 -0.297138,-18.68309 c 0,0 -5.18e-4,-5.2e-4 -5.18e-4,-5.2e-4 l 5.18e-4,-5.2e-4 c -12.57492,-13.86756 -20.290566,-32.22961 -20.43958,-52.408684 -0.0012,-0.131011 -0.0019,-0.261852 -0.0026,-0.392742 V 90.933611 C 24.120282,51.297732 47.20027,15.290577 83.215038,-1.2607592 Z M 44.562101,143.92469 a 55.855957,106.69942 35.702082 0 0 0,0.001 c 0.01138,0.0126 0.02323,0.0247 0.03462,0.0372 -0.01156,-0.0127 -0.02307,-0.0255 -0.03462,-0.0382 z M 131.20332,17.842467 c -40.464961,0.0099 -79.280428,32.816335 -79.280428,73.281316 v 0.06511 h 0.0026 c -0.02085,5.705964 0.896157,10.932097 2.564701,15.653827 A 55.855957,106.69942 35.702082 0 1 64.864221,85.945802 55.855957,106.69942 35.702082 0 1 71.380101,75.413113 C 75.823558,59.865734 86.77448,47.064893 101.09922,40.146015 a 55.855957,106.69942 35.702082 0 1 30.90044,-22.293729 c -0.2594,-0.0027 -0.5177,-0.0098 -0.77773,-0.0098 h -0.0176 z m 0.79634,0.0098 c 1.36244,0.0142 2.71554,0.0659 4.05918,0.153479 -1.34355,-0.08758 -2.69685,-0.13928 -4.05918,-0.153479 z m 4.06331,0.153479 c 1.79213,0.116916 3.56698,0.298118 5.32164,0.541569 -1.75484,-0.243513 -3.52934,-0.424634 -5.32164,-0.541569 z m 5.32164,0.541569 c 3.05987,0.424543 6.0592,1.038093 8.98602,1.828312 -2.92695,-0.790342 -5.92608,-1.403697 -8.98602,-1.828312 z m 9.05527,1.846915 c 2.92491,0.792801 5.77724,1.762142 8.54469,2.895948 -2.76759,-1.133949 -5.61968,-2.103031 -8.54469,-2.895948 z m 8.54469,2.895948 c 2.77873,1.138423 5.47176,2.442858 8.06721,3.900538 -2.59561,-1.457839 -5.28834,-2.761968 -8.06721,-3.900538 z m 8.06721,3.900538 c 1.48311,0.832958 2.9342,1.715968 4.35115,2.646865 -1.41699,-0.930947 -2.86801,-1.813851 -4.35115,-2.646865 z m 4.35115,2.646865 c 1.06272,0.698174 2.10628,1.423022 3.12953,2.174028 -1.02324,-0.751006 -2.06682,-1.475843 -3.12953,-2.174028 z m 3.12953,2.174028 c 1.36433,1.00134 2.69307,2.049124 3.98322,3.140377 -1.29035,-1.091428 -2.61867,-2.138871 -3.98322,-3.140377 z m 3.98322,3.140377 c 2.25776,1.909691 4.39817,3.95328 6.40943,6.119005 -2.01132,-2.165731 -4.15162,-4.209259 -6.40943,-6.119005 z m 6.40943,6.119005 c 3.15997,3.402658 6.00042,7.10623 8.4739,11.062891 -2.47362,-3.956757 -5.31367,-7.660029 -8.4739,-11.062891 z m -60.88104,-6.685378 c -0.19051,0.0051 -0.37996,0.0147 -0.56999,0.0217 0.19005,-0.007 0.37946,-0.01659 0.56999,-0.0217 z m -1.55133,0.06356 c -0.20327,0.01099 -0.40553,0.02562 -0.60823,0.03876 0.20271,-0.01314 0.40495,-0.02777 0.60823,-0.03876 z m -1.55494,0.106453 c -0.19643,0.01604 -0.39222,0.03415 -0.58808,0.05219 0.19586,-0.01804 0.39165,-0.03616 0.58808,-0.05219 z m 10.41073,0.09922 c 0.94749,0.09622 1.88799,0.216072 2.82102,0.358635 -0.93303,-0.142563 -1.87353,-0.262411 -2.82102,-0.358635 z m -11.95017,0.04858 c -0.20169,0.02203 -0.40305,0.0451 -0.6041,0.06925 0.20103,-0.02414 0.40242,-0.04723 0.6041,-0.06925 z m -1.49138,0.183451 c -0.21229,0.02892 -0.42461,0.0576 -0.63614,0.08888 0.21154,-0.03127 0.42384,-0.05996 0.63614,-0.08888 z m -1.55908,0.234609 c -0.18713,0.03086 -0.3747,0.06032 -0.56121,0.09302 0.18651,-0.03269 0.37407,-0.06217 0.56121,-0.09302 z m -1.63039,0.293008 c -0.1342,0.02622 -0.26922,0.05035 -0.40308,0.07751 0.13385,-0.02716 0.26888,-0.05131 0.40308,-0.07751 z m -3.33623,0.755509 c -0.14116,0.03665 -0.28096,0.07649 -0.42168,0.114205 0.14067,-0.03769 0.28057,-0.07758 0.42168,-0.114205 z m -1.45625,0.399974 c -0.15248,0.04402 -0.30383,0.09065 -0.45578,0.135911 0.15194,-0.04526 0.30331,-0.0919 0.45578,-0.135911 z m 32.42232,0.328147 c 0.44127,0.137249 0.88067,0.280151 1.31723,0.427881 -0.43676,-0.147807 -0.87575,-0.290565 -1.31723,-0.427881 z m -33.84652,0.104386 c -0.17366,0.05517 -0.34642,0.112175 -0.51935,0.168981 0.17289,-0.05679 0.34573,-0.113826 0.51935,-0.168981 z m -1.39526,0.464055 c -0.18194,0.06311 -0.36359,0.126796 -0.54467,0.19172 0.18112,-0.06493 0.3627,-0.128598 0.54467,-0.19172 z m -1.43506,0.52038 c -0.16189,0.06116 -0.32406,0.121883 -0.48524,0.184486 0.16118,-0.0626 0.32335,-0.12333 0.48524,-0.184486 z m -1.46295,0.576193 c -0.12809,0.05254 -0.25687,0.10364 -0.38448,0.157097 0.1276,-0.05345 0.2564,-0.104563 0.38448,-0.157097 z m -1.50017,0.640271 c -0.0811,0.03603 -0.16307,0.07005 -0.24392,0.106452 0.0808,-0.0364 0.16288,-0.07042 0.24392,-0.106452 z m 61.76935,10.725959 c 0.32631,0.311105 0.64861,0.626386 0.96739,0.945164 -0.31887,-0.318868 -0.64099,-0.633974 -0.96739,-0.945164 z m 28.92537,2.209168 c 1.56918,2.510544 2.99049,5.123183 4.25194,7.825362 -1.26152,-2.702357 -2.68257,-5.314601 -4.25194,-7.825362 z m 4.26279,7.848616 a 55.855957,106.69942 35.702082 0 1 -20.20704,57.067308 55.855957,106.69942 35.702082 0 1 -0.0165,0.0279 c -1.3e-4,3.6e-4 -3.9e-4,6.8e-4 -5.2e-4,0.001 -5.3132,15.00285 -15.03106,27.91816 -27.60193,37.19257 a 55.855957,106.69942 35.702082 0 1 -42.72866,32.46365 c 0.52072,0.008 1.04166,0.0134 1.56269,0.0134 52.9249,3.1e-4 95.82909,-42.90388 95.82878,-95.828767 1.6e-4,-11.056123 -2.45283,-21.537385 -6.83679,-30.937131 z M 71.277781,75.782598 c -0.07647,0.274651 -0.151357,0.549987 -0.223758,0.826307 0.0724,-0.276349 0.147288,-0.551629 0.223758,-0.826307 z m -0.342614,1.287778 c -0.078,0.308385 -0.15344,0.617725 -0.226343,0.928108 0.07289,-0.310433 0.148341,-0.619676 0.226343,-0.928108 z m 70.146623,0.05013 c 0.45062,0.337008 0.88449,0.694978 1.30018,1.072803 -0.4157,-0.377822 -0.84955,-0.735798 -1.30018,-1.072803 z M 70.624075,78.36177 c -0.07561,0.331803 -0.147314,0.664906 -0.21704,0.998905 0.06969,-0.333973 0.141465,-0.667131 0.21704,-0.998905 z m -0.311091,1.460891 c -0.05989,0.299427 -0.117475,0.599604 -0.172601,0.900721 0.05509,-0.301056 0.112752,-0.601352 0.172601,-0.900721 z m 73.812026,0.198957 c 0.53656,0.650192 1.02731,1.339633 1.4671,2.06344 -0.43987,-0.72394 -0.93042,-1.413142 -1.4671,-2.06344 z m -74.040436,1.000971 c -0.07036,0.396468 -0.135895,0.794957 -0.197922,1.194242 0.06201,-0.399436 0.127572,-0.797623 0.197922,-1.194242 z m -0.252698,1.562695 c -0.04439,0.298813 -0.0864,0.598329 -0.12609,0.898655 0.03965,-0.300291 0.08173,-0.599874 0.12609,-0.898655 z m 76.182944,0.235128 c 0.40538,0.746281 0.75835,1.525479 1.05368,2.332159 -0.29534,-0.806678 -0.64829,-1.585881 -1.05368,-2.332159 z m -76.360712,1.055232 c -0.04987,0.398886 -0.09546,0.799013 -0.136941,1.200444 0.04145,-0.401442 0.08711,-0.801545 0.136941,-1.200444 z m -0.166397,1.506368 c -0.03264,0.333529 -0.06261,0.667832 -0.0894,1.003041 0.02677,-0.335217 0.05679,-0.669502 0.0894,-1.003041 z m 77.856749,0.586013 c 0.17096,0.549738 0.31562,1.111149 0.43253,1.682583 -0.11692,-0.571431 -0.26156,-1.132848 -0.43253,-1.682583 z m 0.43253,1.682583 c 0.23382,1.142868 0.3566,2.326288 0.35657,3.538286 3e-5,-1.211998 -0.12273,-2.395421 -0.35657,-3.538286 z m 0.35657,3.538286 c 3e-5,1.945762 -0.12321,3.870497 -0.36226,5.766057 0.23905,-1.895563 0.36229,-3.820295 0.36226,-5.766057 z m -0.36226,5.766057 c -0.23905,1.895559 -0.59392,3.761739 -1.0573,5.589839 0.46338,-1.82811 0.81825,-3.694277 1.0573,-5.589839 z M 69.371437,86.730252 c -0.03077,0.416994 -0.05794,0.835229 -0.07958,1.254702 0.02162,-0.41947 0.04884,-0.837705 0.07958,-1.254702 z m -0.08836,1.455209 c -0.018,0.37457 -0.03224,0.750085 -0.04289,1.126545 0.01064,-0.376428 0.02491,-0.752001 0.04289,-1.126545 z m -0.05116,1.437121 c -0.01,0.435978 -0.01654,0.872651 -0.01654,1.311029 0,-0.438396 0.0066,-0.875022 0.01654,-1.311029 z m 112.721803,1.500682 c -0.001,0.624732 -0.012,1.247389 -0.0279,1.86862 0.016,-0.621226 0.0264,-1.243875 0.0279,-1.86862 z m -112.737305,0.06563 c -5e-6,0.583732 0.01471,1.163992 0.04392,1.740461 -0.02922,-0.576469 -0.04393,-1.156729 -0.04392,-1.740461 z m 0.04392,1.740461 c 0.02922,0.576471 0.07301,1.149226 0.130742,1.717725 -0.05773,-0.568499 -0.101524,-1.141254 -0.130742,-1.717725 z m 0.130742,1.717725 c 0.05773,0.5685 0.129439,1.132584 0.214974,1.692405 -0.08553,-0.559821 -0.157242,-1.123905 -0.214974,-1.692405 z m 0.214974,1.692405 c 0.128304,0.839729 0.287583,1.669492 0.476456,2.487702 -0.18887,-0.818213 -0.348152,-1.64797 -0.476456,-2.487702 z m 0.476456,2.487702 c 0.566624,2.454633 1.400387,4.806983 2.469102,7.024893 -1.068702,-2.21793 -1.902486,-4.57026 -2.469102,-7.024893 z M 181.901,93.703986 c -0.0134,0.388848 -0.028,0.777391 -0.047,1.164786 0.0191,-0.387403 0.0335,-0.775925 0.047,-1.164786 z m -0.0904,1.947685 c -0.0214,0.363276 -0.0455,0.725853 -0.0718,1.087787 0.0264,-0.361876 0.0503,-0.724564 0.0718,-1.087787 z m -0.13591,1.915645 c -0.0282,0.338973 -0.06,0.677185 -0.0925,1.014925 0.0326,-0.337801 0.0642,-0.675888 0.0925,-1.014925 z m -0.17673,1.869654 c -0.0345,0.321527 -0.0738,0.64134 -0.11214,0.9617 0.0384,-0.32029 0.0776,-0.640245 0.11214,-0.9617 z m -59.56381,1.1498 c 0.0806,0.0779 0.16564,0.15146 0.2558,0.22118 -0.0901,-0.0696 -0.17526,-0.14339 -0.2558,-0.22118 z m 1.30586,0.78548 c 0.18896,0.0711 0.39094,0.13555 0.6072,0.19379 -0.21627,-0.0582 -0.41823,-0.12271 -0.6072,-0.19379 z m 6.3345,0.82011 c 0.16253,0.009 0.32582,0.0328 0.48886,0.0672 -0.16322,-0.0344 -0.32616,-0.0586 -0.48886,-0.0672 z m 0.5948,0.0915 c 0.16093,0.0389 0.32191,0.0869 0.48265,0.14625 -0.16081,-0.0594 -0.32165,-0.10732 -0.48265,-0.14625 z m 16.25378,1.35341 c -0.60776,2.17505 -1.36956,4.29303 -2.27272,6.33863 0.90317,-2.04561 1.66496,-4.16358 2.27272,-6.33863 z m -2.27272,6.33863 c -0.30106,0.68187 -0.61783,1.35527 -0.94982,2.02055 0.33199,-0.66528 0.64876,-1.33868 0.94982,-2.02055 z m -0.94982,2.02055 c -0.33198,0.66528 -0.6793,1.32232 -1.04128,1.9699 0.36198,-0.64758 0.70929,-1.30462 1.04128,-1.9699 z m 37.63181,-7.76955 c -0.0245,0.14447 -0.0476,0.28936 -0.0729,0.43356 0.0253,-0.14415 0.0483,-0.28914 0.0729,-0.43356 z m -43.88569,0.52865 c -0.0473,0.0642 -0.0961,0.12186 -0.14624,0.17363 0.0502,-0.0518 0.0989,-0.10934 0.14624,-0.17363 z m 43.57874,1.16685 c -0.0293,0.15234 -0.0582,0.3048 -0.0884,0.45682 0.0302,-0.15202 0.059,-0.30449 0.0884,-0.45682 z m -107.608969,0.664 c 0.249005,0.48614 0.509336,0.96549 0.780831,1.43764 -0.271492,-0.47215 -0.531829,-0.95149 -0.780831,-1.43764 z m 0.780831,1.43764 c 0.271496,0.47215 0.554214,0.9373 0.847494,1.39475 -0.293277,-0.45745 -0.576,-0.9226 -0.847494,-1.39475 z m 0.847494,1.39475 c 0.29328,0.45745 0.597218,0.90723 0.911572,1.34927 -0.314352,-0.44204 -0.618297,-0.89182 -0.911572,-1.34927 z m 0.911572,1.34927 c 0.628711,0.88408 1.298869,1.73669 2.007629,2.55488 -0.708752,-0.8182 -1.378926,-1.67079 -2.007629,-2.55488 z m 2.007629,2.55488 c 0.531651,0.61374 1.084911,1.20793 1.658813,1.78181 -0.573804,-0.57381 -1.127246,-1.16815 -1.658813,-1.78181 z m 102.700193,-5.62756 c -0.0219,0.10123 -0.0444,0.20225 -0.0667,0.30334 0.0223,-0.10108 0.0447,-0.20211 0.0667,-0.30334 z m -125.327235,0.0935 c 0.06602,0.17368 0.13553,0.34502 0.203605,0.51728 -0.06809,-0.17229 -0.13757,-0.34357 -0.203605,-0.51728 z m 0.413412,1.04283 c 0.0755,0.18385 0.153159,0.36609 0.230994,0.54829 -0.07783,-0.18218 -0.155501,-0.36446 -0.230994,-0.54829 z m 0.426847,0.99994 c 0.08201,0.18595 0.164652,0.37132 0.249081,0.55553 -0.08443,-0.1842 -0.167076,-0.36958 -0.249081,-0.55553 z m 0.462504,1.01079 c 0.08523,0.18025 0.16981,0.36096 0.25735,0.53951 -0.08755,-0.17857 -0.172109,-0.35923 -0.25735,-0.53951 z m 0.498161,1.01751 c 0.153812,0.30389 0.310835,0.60551 0.471289,0.90434 -0.160481,-0.29888 -0.317453,-0.6004 -0.471289,-0.90434 z m 0.717269,1.35961 c 0.100034,0.18094 0.202441,0.35993 0.30489,0.53898 -0.102394,-0.17895 -0.204909,-0.35813 -0.30489,-0.53898 z m 0.524515,0.91932 c 0.106802,0.18223 0.21472,0.36341 0.324012,0.54364 -0.109305,-0.18026 -0.217197,-0.36138 -0.324012,-0.54364 z m 70.079957,0.40876 c -0.36718,0.31039 -0.73892,0.61619 -1.11517,0.91726 0.37624,-0.30107 0.74799,-0.60687 1.11517,-0.91726 z m -69.499114,0.55191 c 0.0975,0.15666 0.194667,0.31358 0.294039,0.4687 -0.09933,-0.15507 -0.196575,-0.31209 -0.294039,-0.4687 z m 82.569124,0.78135 c -0.39103,0.62878 -0.79631,1.24785 -1.21543,1.85673 0.41912,-0.60888 0.8244,-1.22795 1.21543,-1.85673 z m -1.21543,1.85673 c -0.83825,1.21775 -1.73187,2.39489 -2.67684,3.5264 0.94499,-1.13152 1.83858,-2.30864 2.67684,-3.5264 z m -80.756831,-1.70635 c 0.191164,0.29001 0.385765,0.57695 0.583427,0.86144 -0.197644,-0.28448 -0.392279,-0.57144 -0.583427,-0.86144 z m 0.849561,1.24436 c 0.111659,0.15703 0.225893,0.31185 0.339513,0.46716 -0.113614,-0.15531 -0.227859,-0.31013 -0.339513,-0.46716 z m 0.639239,0.87333 c 0.10795,0.14398 0.216963,0.28698 0.326593,0.42944 -0.109624,-0.14246 -0.218649,-0.28546 -0.326593,-0.42944 z m 0.665591,0.86404 c 0.110691,0.1401 0.221517,0.27997 0.33383,0.41857 -0.112276,-0.13856 -0.223174,-0.27851 -0.33383,-0.41857 z m 0.659908,0.81441 c 0.1182,0.1424 0.235627,0.28556 0.355533,0.42634 -0.119885,-0.14077 -0.237352,-0.28395 -0.355533,-0.42634 z m 0.999939,1.16582 c 0.11502,0.12909 0.232352,0.2558 0.348816,0.38344 -0.116459,-0.12765 -0.233801,-0.25435 -0.348816,-0.38344 z m 0.710549,0.7767 c 0.129506,0.13855 0.259993,0.27608 0.391192,0.4129 -0.131141,-0.13677 -0.261744,-0.2744 -0.391192,-0.4129 z m 72.836904,0.33383 c -0.72787,0.83143 -1.48445,1.637 -2.26757,2.41433 0.78322,-0.77742 1.53961,-1.5828 2.26757,-2.41433 z m -72.107749,0.42737 c 0.134551,0.1373 0.269412,0.27428 0.405662,0.40979 -0.136295,-0.13556 -0.271066,-0.27244 -0.405662,-0.40979 z m 0.762746,0.75912 c 0.13476,0.1311 0.268798,0.26286 0.405143,0.39223 -0.136273,-0.12932 -0.270451,-0.26119 -0.405143,-0.39223 z m 1.116211,1.05317 c 0.130329,0.1185 0.263141,0.23442 0.394806,0.3514 -0.131617,-0.11695 -0.264522,-0.23293 -0.394806,-0.3514 z m 0.780315,0.69246 c 0.143724,0.12486 0.288837,0.24797 0.43408,0.37104 -0.145296,-0.12313 -0.290303,-0.24612 -0.43408,-0.37104 z m 0.814935,0.6904 c 0.141536,0.11737 0.283421,0.23415 0.426331,0.34985 -0.142809,-0.11562 -0.284893,-0.23256 -0.426331,-0.34985 z m 64.764522,0.30851 c -0.54546,0.49279 -1.10229,0.97241 -1.67018,1.43867 0.56779,-0.46618 1.12481,-0.94597 1.67018,-1.43867 z m -63.937181,0.36173 c 0.145889,0.1155 0.291481,0.23142 0.438732,0.3452 -0.147328,-0.11385 -0.292772,-0.22963 -0.438732,-0.3452 z m 0.887802,0.68575 c 0.229796,0.17326 0.461078,0.34452 0.694012,0.51366 -0.232886,-0.16912 -0.464264,-0.34042 -0.694012,-0.51366 z m 1.180806,0.86455 c 0.142327,0.10067 0.285999,0.19953 0.429429,0.29869 -0.143401,-0.0992 -0.287131,-0.19803 -0.429429,-0.29869 z m 59.338493,0.216 c -0.57864,0.4525 -1.1682,0.89137 -1.76785,1.31569 0.59977,-0.4244 1.18909,-0.8631 1.76785,-1.31569 z m -58.448109,0.39791 c 0.141591,0.0955 0.283715,0.19018 0.426331,0.28422 -0.142653,-0.0941 -0.284702,-0.18868 -0.426331,-0.28422 z m 0.902271,0.59325 c 0.138028,0.0888 0.275506,0.1782 0.414444,0.26561 -0.138917,-0.0874 -0.276437,-0.17686 -0.414444,-0.26561 z m 0.953429,0.59789 c 0.124616,0.0762 0.248311,0.1538 0.373621,0.22893 -0.125299,-0.0751 -0.249013,-0.15272 -0.373621,-0.22893 z m 53.917119,0.35244 c -1.5248,1.02471 -3.11238,1.95803 -4.75526,2.79104 1.64289,-0.83302 3.23045,-1.76632 4.75526,-2.79104 z m -4.75526,2.79104 c -0.65702,0.33314 -1.32305,0.6503 -1.9973,0.95085 0.6744,-0.30061 1.34014,-0.61764 1.9973,-0.95085 z M 74.678608,130.4945 c 0.126201,0.0723 0.253487,0.14276 0.380339,0.21394 -0.126913,-0.0712 -0.254077,-0.14164 -0.380339,-0.21394 z m 0.917774,0.51212 c 0.152429,0.0831 0.30557,0.16488 0.458885,0.2465 -0.153302,-0.0816 -0.306472,-0.16336 -0.458885,-0.2465 z m 0.962731,0.51108 c 0.144341,0.0748 0.288481,0.14978 0.433565,0.22324 -0.145031,-0.0734 -0.289277,-0.14846 -0.433565,-0.22324 z m 0.999422,0.50436 c 0.134209,0.0659 0.26775,0.13314 0.40256,0.19792 -0.134815,-0.0648 -0.268345,-0.132 -0.40256,-0.19792 z m 1.32085,0.62839 c 0.120277,0.055 0.241535,0.10767 0.362251,0.16174 -0.12066,-0.054 -0.24203,-0.1068 -0.362251,-0.16174 z m 0.985985,0.43718 c 0.137637,0.0595 0.275757,0.11782 0.41393,0.17622 -0.138205,-0.0584 -0.276259,-0.11666 -0.41393,-0.17622 z m 1.009243,0.42374 c 0.141073,0.0576 0.282146,0.11514 0.423746,0.17157 -0.141549,-0.0564 -0.282723,-0.11396 -0.423746,-0.17157 z m 39.716957,0.33487 c -0.67425,0.30053 -1.35689,0.58478 -2.04742,0.85163 0.69054,-0.26684 1.37316,-0.5511 2.04742,-0.85163 z m -38.669477,0.0801 c 0.124711,0.0479 0.249047,0.0967 0.374137,0.14366 -0.125111,-0.047 -0.249404,-0.0957 -0.374137,-0.14366 z m 1.35754,0.50281 c 0.09943,0.0352 0.199557,0.0682 0.299207,0.10284 -0.0996,-0.0346 -0.199827,-0.0677 -0.299207,-0.10284 z m 35.263997,0.26872 c -0.69069,0.26689 -1.38892,0.51671 -2.09496,0.74879 0.70588,-0.23203 1.40442,-0.48196 2.09496,-0.74879 z m -2.09496,0.74879 c -0.70604,0.23207 -1.41948,0.44617 -2.13992,0.64233 0.72044,-0.19616 1.43388,-0.41025 2.13992,-0.64233 z m -32.169097,-0.67541 c 0.154302,0.0512 0.309266,0.10048 0.464053,0.15037 -0.154737,-0.0499 -0.309804,-0.0991 -0.464053,-0.15037 z m 1.054716,0.33744 c 0.145354,0.0451 0.290915,0.0895 0.436666,0.13333 -0.145762,-0.0439 -0.291304,-0.0883 -0.436666,-0.13333 z m 1.090372,0.32556 c 0.124505,0.0358 0.248849,0.0721 0.373621,0.10698 -0.124815,-0.0349 -0.249074,-0.0712 -0.373621,-0.10698 z m 1.226283,0.33797 c 0.06761,0.0178 0.134882,0.0367 0.20257,0.0543 -0.06768,-0.0175 -0.134956,-0.0365 -0.20257,-0.0543 z m 1.236099,0.31057 c 0.1099,0.0262 0.220146,0.051 0.330213,0.0765 -0.110085,-0.0255 -0.220295,-0.0503 -0.330213,-0.0765 z m 1.081071,0.24547 c 0.122386,0.0266 0.244849,0.0528 0.367419,0.0785 -0.122536,-0.0258 -0.245067,-0.0519 -0.367419,-0.0785 z m 1.053682,0.21807 c 0.139677,0.0276 0.279207,0.0556 0.419095,0.0822 -0.139888,-0.0265 -0.279418,-0.0546 -0.419095,-0.0822 z m 1.169953,0.21808 c 0.105109,0.0184 0.210016,0.038 0.315228,0.0558 -0.105228,-0.0179 -0.210103,-0.0374 -0.315228,-0.0558 z m 1.373045,0.22479 c 0.09208,0.0138 0.184325,0.0264 0.276469,0.0398 -0.09215,-0.0134 -0.184383,-0.026 -0.276469,-0.0398 z m 1.056783,0.14779 c 0.147894,0.0193 0.295865,0.0372 0.443899,0.0553 -0.148021,-0.0181 -0.296018,-0.036 -0.443899,-0.0553 z m 1.077971,0.12919 c 0.149667,0.0166 0.299283,0.0332 0.449066,0.0486 -0.14973,-0.0154 -0.299452,-0.032 -0.449066,-0.0486 z m 11.949662,0.0811 c -1.137,0.12267 -2.28645,0.20073 -3.44682,0.23202 1.16037,-0.0313 2.30982,-0.10935 3.44682,-0.23202 z m -10.728033,0.0408 c 0.09268,0.008 0.185311,0.0176 0.278021,0.0253 -0.09274,-0.008 -0.185317,-0.0171 -0.278021,-0.0253 z m 1.342554,0.1049 c 0.112619,0.007 0.225316,0.0126 0.337965,0.0191 -0.112641,-0.007 -0.225354,-0.0118 -0.337965,-0.0191 z m 1.109489,0.0594 c 0.1206,0.005 0.24113,0.009 0.36174,0.0139 -0.12056,-0.005 -0.24119,-0.009 -0.36174,-0.0139 z m 1.09916,0.0372 c 0.13473,0.003 0.26939,0.006 0.40411,0.009 -0.13469,-0.002 -0.26941,-0.005 -0.40411,-0.009 z m 1.12965,0.016 c 0.11712,4.8e-4 0.2343,0.002 0.3514,0.002 -0.11714,2.7e-4 -0.23424,-0.001 -0.3514,-0.002 z m -48.300411,14.59859 c 0.05183,0.0421 0.104638,0.0831 0.156578,0.12506 -0.05194,-0.042 -0.104746,-0.0829 -0.156578,-0.12506 z m 1.537891,1.2175 c 0.0917,0.0708 0.184444,0.14039 0.276468,0.21084 -0.09203,-0.0704 -0.184761,-0.14001 -0.276468,-0.21084 z m 1.572514,1.18339 c 0.116443,0.0854 0.233955,0.16945 0.350883,0.25425 -0.116941,-0.0848 -0.234429,-0.16884 -0.350883,-0.25425 z m 1.600936,1.1436 c 0.134776,0.0938 0.270271,0.18658 0.405659,0.27957 -0.135366,-0.093 -0.270904,-0.18579 -0.405659,-0.27957 z m 1.619538,1.09709 c 0.158694,0.10473 0.317997,0.20851 0.477491,0.31212 -0.159515,-0.10361 -0.318773,-0.2074 -0.477491,-0.31212 z m 86.662922,0.0956 c -0.10801,0.0709 -0.21562,0.14249 -0.32401,0.21291 0.1084,-0.0704 0.21598,-0.14196 0.32401,-0.21291 z m -1.3596,0.87385 c -0.11343,0.0712 -0.22725,0.14174 -0.34107,0.21239 0.1138,-0.0707 0.22765,-0.14118 0.34107,-0.21239 z m -83.645541,0.0946 c 0.168275,0.10512 0.336791,0.20978 0.50591,0.31367 -0.169087,-0.10385 -0.337667,-0.20859 -0.50591,-0.31367 z m 82.228571,0.77566 c -0.064,0.0383 -0.12866,0.0755 -0.19275,0.11368 0.0641,-0.0381 0.12877,-0.0754 0.19275,-0.11368 z m -80.548054,0.24443 c 0.182769,0.10794 0.365091,0.21647 0.548804,0.32298 -0.183697,-0.10649 -0.366048,-0.21507 -0.548804,-0.32298 z m 1.738395,0.99684 c 0.175977,0.098 0.351332,0.19684 0.528132,0.29352 -0.176819,-0.0967 -0.352137,-0.19554 -0.528132,-0.29352 z m 75.017129,0.8878 c -0.12185,0.0641 -0.24313,0.12926 -0.36536,0.19275 0.12222,-0.0635 0.24352,-0.12863 0.36536,-0.19275 z m -73.246178,0.0692 c 0.170934,0.0895 0.340963,0.18041 0.51263,0.26872 -0.171659,-0.0883 -0.341706,-0.17921 -0.51263,-0.26872 z m 71.845228,0.65061 c -0.16779,0.084 -0.33589,0.16724 -0.50436,0.25011 0.16844,-0.0829 0.3366,-0.16607 0.50436,-0.25011 z m -70.037071,0.26665 c 0.178128,0.0875 0.354941,0.17733 0.533818,0.26355 -0.178903,-0.0862 -0.355663,-0.17603 -0.533818,-0.26355 z m 0.923976,0.44959 c 0.459459,0.21835 0.920641,0.43317 1.384929,0.64285 -0.464142,-0.20957 -0.925613,-0.42462 -1.384929,-0.64285 z m 67.612925,0.0165 c -0.16281,0.0773 -0.32699,0.15224 -0.49041,0.22841 0.16344,-0.0762 0.32759,-0.15112 0.49041,-0.22841 z m -65.892099,0.77567 c 0.467473,0.20848 0.937003,0.41379 1.409215,0.61339 -0.47235,-0.19962 -0.941607,-0.40489 -1.409215,-0.61339 z m 1.729091,0.74672 c 0.470652,0.1965 0.943311,0.3886 1.418519,0.57619 -0.47511,-0.18751 -0.947962,-0.37977 -1.418519,-0.57619 z m 60.245938,0.20515 c -0.198,0.081 -0.39548,0.16289 -0.59428,0.24237 0.19876,-0.0795 0.39631,-0.16131 0.59428,-0.24237 z m -58.615546,0.45579 c 0.503454,0.19705 1.010354,0.38771 1.518772,0.57464 -0.508535,-0.18693 -1.015204,-0.37759 -1.518772,-0.57464 z m 57.075066,0.15658 c -0.23358,0.0899 -0.46764,0.17893 -0.70228,0.26665 0.23463,-0.0877 0.46872,-0.17674 0.70228,-0.26665 z m -55.227115,0.5395 c 0.496435,0.18001 0.995542,0.35373 1.496549,0.524 -0.500944,-0.17021 -1.000178,-0.34405 -1.496549,-0.524 z m 53.632905,0.0558 c -0.25773,0.0928 -0.5167,0.18267 -0.77567,0.27286 0.25895,-0.0902 0.51795,-0.18002 0.77567,-0.27286 z m -1.6552,0.57671 c -0.49907,0.16718 -1.00032,0.32989 -1.50378,0.48731 0.5035,-0.1575 1.00466,-0.32004 1.50378,-0.48731 z m -50.128207,0.0114 c 0.508309,0.17006 1.019355,0.33461 1.532207,0.49454 -0.513011,-0.15994 -1.023739,-0.32447 -1.532207,-0.49454 z m 1.833996,0.58859 c 0.514591,0.1582 1.031291,0.311 1.550295,0.45889 -0.51887,-0.14782 -1.035836,-0.30077 -1.550295,-0.45889 z m 46.078841,0.10232 c -0.33867,0.10238 -0.67745,0.20438 -1.01802,0.30231 0.3405,-0.0979 0.67942,-0.19991 1.01802,-0.30231 z M 81.715903,166.934 c 0.524987,0.14703 1.051965,0.28944 1.581301,0.42581 -0.529333,-0.13634 -1.056317,-0.27881 -1.581301,-0.42581 z m 42.404127,0.0636 c -0.31107,0.086 -0.62274,0.17039 -0.93534,0.2527 0.31259,-0.0824 0.62428,-0.16662 0.93534,-0.2527 z m -40.530856,0.43615 c 0.553652,0.14037 1.109364,0.27603 1.6676,0.40463 -0.558429,-0.12861 -1.113758,-0.26424 -1.6676,-0.40463 z m 38.798666,0.0233 c -0.35271,0.0889 -0.70685,0.17422 -1.06143,0.25838 0.35453,-0.0842 0.70877,-0.16943 1.06143,-0.25838 z m -1.70325,0.41082 c -0.56604,0.12932 -1.13422,0.25345 -1.70481,0.37052 0.57066,-0.11714 1.13871,-0.24112 1.70481,-0.37052 z m -35.284673,0.003 c 0.598024,0.13658 1.19834,0.26777 1.801442,0.39067 -0.603025,-0.12286 -1.203489,-0.25414 -1.801442,-0.39067 z m 1.841748,0.39842 c 0.614212,0.12484 1.230725,0.24196 1.850017,0.35244 -0.619305,-0.11045 -1.235787,-0.22763 -1.850017,-0.35244 z m 31.322115,0.0507 c -0.45205,0.0902 -0.9048,0.17799 -1.3596,0.26044 0.45478,-0.0825 0.90757,-0.17019 1.3596,-0.26044 z m -29.408537,0.31367 c 0.595979,0.10581 1.194731,0.20376 1.79524,0.29611 -0.60039,-0.0923 -1.199377,-0.19035 -1.79524,-0.29611 z m 27.412277,0.0579 c -0.38863,0.0672 -0.77836,0.13182 -1.16892,0.19327 0.39063,-0.0615 0.78022,-0.12606 1.16892,-0.19327 z m -25.417567,0.26923 c 0.591058,0.0893 1.18447,0.17139 1.779738,0.24753 -0.595336,-0.0761 -1.188609,-0.1582 -1.779738,-0.24753 z m 23.574787,0.0274 c -0.40757,0.0605 -0.81619,0.11731 -1.22576,0.17157 0.40952,-0.0543 0.81825,-0.11102 1.22576,-0.17157 z m -21.609531,0.24391 c 0.594775,0.0747 1.191784,0.14228 1.790589,0.20361 -0.598874,-0.0613 -1.195742,-0.12896 -1.790589,-0.20361 z m 19.805511,0.004 c -0.60165,0.0752 -1.20498,0.14514 -1.81074,0.2067 0.60573,-0.0616 1.20914,-0.13148 1.81074,-0.2067 z m -1.94614,0.21911 c -0.56406,0.0563 -1.13008,0.10597 -1.69757,0.15037 0.5675,-0.0444 1.13351,-0.094 1.69757,-0.15037 z m -15.868794,5.1e-4 c 0.596153,0.0595 1.194231,0.11247 1.794205,0.15865 -0.599966,-0.0462 -1.198057,-0.0991 -1.794205,-0.15865 z m 2.014347,0.17519 c 0.606287,0.045 1.214167,0.0841 1.824177,0.11523 -0.609917,-0.0312 -1.217977,-0.0703 -1.824177,-0.11523 z m 11.601357,0.0145 c -0.43761,0.0312 -0.87613,0.0592 -1.31568,0.0832 0.43959,-0.024 0.87804,-0.052 1.31568,-0.0832 z m -9.632487,0.10748 c 0.624807,0.0308 1.251457,0.0551 1.879987,0.0713 -0.62855,-0.0162 -1.25515,-0.0405 -1.879987,-0.0713 z m 7.707537,0.007 c -0.4517,0.0212 -0.9044,0.0376 -1.35805,0.0512 0.45364,-0.0136 0.90637,-0.0299 1.35805,-0.0512 z m -5.69371,0.0667 c 0.64305,0.0155 1.2875,0.0248 1.93425,0.0248 0.62853,0 1.25498,-0.01 1.87999,-0.0243 -0.62485,0.0146 -1.25111,0.0238 -1.87947,0.0238 -0.64688,0 -1.29159,-0.009 -1.93477,-0.0243 z m -14.394464,14.5743 c 0.08567,0.0202 0.171627,0.039 0.257347,0.0589 -0.08571,-0.0199 -0.171683,-0.0387 -0.257347,-0.0589 z m 1.391645,0.31678 c 0.139573,0.0307 0.279402,0.0599 0.419094,0.0899 -0.139684,-0.03 -0.279532,-0.0592 -0.419094,-0.0899 z m 1.407665,0.29817 c 0.165068,0.0337 0.330351,0.0659 0.495578,0.0987 -0.165222,-0.0328 -0.330512,-0.065 -0.495578,-0.0987 z m 1.39578,0.27389 c 0.187746,0.0354 0.375857,0.069 0.56379,0.10335 -0.187928,-0.0343 -0.376052,-0.0679 -0.56379,-0.10335 z m 1.379763,0.2496 c 0.213137,0.037 0.426384,0.073 0.639754,0.10852 -0.213418,-0.0356 -0.426566,-0.0715 -0.639754,-0.10852 z m 1.43247,0.23771 c 0.198667,0.0314 0.397494,0.0613 0.596347,0.0915 -0.198806,-0.0301 -0.397727,-0.0601 -0.596347,-0.0915 z m 1.421619,0.21342 c 0.201441,0.0288 0.403,0.0568 0.604613,0.0842 -0.201621,-0.0274 -0.403167,-0.0555 -0.604613,-0.0842 z m 1.393195,0.1881 c 0.220054,0.0281 0.440182,0.0556 0.660427,0.0822 -0.220237,-0.0266 -0.440381,-0.0541 -0.660427,-0.0822 z m 1.402498,0.16847 c 0.226642,0.0256 0.45324,0.051 0.680064,0.0749 -0.226843,-0.0239 -0.453403,-0.0494 -0.680064,-0.0749 z m 1.442289,0.15141 c 0.21701,0.0212 0.43397,0.0428 0.65112,0.0625 -0.21712,-0.0197 -0.43415,-0.0414 -0.65112,-0.0625 z m 1.4242,0.12816 c 0.21958,0.0181 0.43917,0.0366 0.65888,0.0532 -0.21975,-0.0166 -0.43926,-0.0351 -0.65888,-0.0532 z m 1.36219,0.10232 c 0.25166,0.0171 0.50318,0.035 0.755,0.0501 -0.25176,-0.0152 -0.5034,-0.033 -0.755,-0.0501 z m 1.34256,0.0822 c 0.27161,0.0147 0.54317,0.0305 0.81494,0.0429 -0.27183,-0.0124 -0.54328,-0.0282 -0.81494,-0.0429 z m 1.56011,0.0713 c 0.22209,0.008 0.44393,0.0185 0.66611,0.0253 -0.22213,-0.007 -0.44407,-0.017 -0.66611,-0.0253 z" />
    <path
       id="path2725"
       style="fill:#dc3545;stroke-width:0.324591"
       d="m 131.99962,17.852286 a 55.855957,106.69942 35.702082 0 0 -30.90044,22.293729 c 7.40497,-3.576613 15.71128,-5.582097 24.48585,-5.582089 31.13208,-2.9e-5 56.36971,25.237617 56.36968,56.369685 -2.8e-4,0.0634 -6.2e-4,0.126513 -0.001,0.189653 -0.0221,9.173586 -1.6146,17.976236 -4.5129,26.160166 a 55.855957,106.69942 35.702082 0 0 0.0171,-0.0289 55.855957,106.69942 35.702082 0 0 20.20703,-57.067838 C 186.10364,35.398425 161.08366,18.155414 131.99962,17.852286 Z M 130.578,73.632859 c -9.69554,3.31e-4 -10.04671,8.243416 -10.04641,17.938956 3.5e-4,9.695055 0.11723,10.148405 9.04286,10.620545 2.86695,0.15165 5.85946,4.61661 7.37216,2.56315 -7.37329,10.62133 -20.97829,20.2545 -33.90801,20.25509 -18.679433,1.6e-4 -33.822376,-15.14229 -33.822225,-33.821706 -5.82e-4,-0.085 -0.001,-0.170323 -0.001,-0.255283 -5e-6,-5.383294 0.755502,-10.589712 2.164726,-15.520498 A 55.855957,106.69942 35.702082 0 0 64.864185,85.945802 55.855957,106.69942 35.702082 0 0 54.49014,106.84272 c 7.155484,20.24893 28.15821,31.20257 48.54846,30.75213 24.90576,-2.2e-4 45.09533,-21.50021 45.09492,-46.405956 3e-4,-9.695989 -7.85953,-17.556334 -17.55552,-17.556035 z M 44.562066,143.92469 a 55.855957,106.69942 35.702082 0 0 0.297138,18.68413 c 0.329843,0.29445 0.658818,0.58969 0.992706,0.87954 h 0.001 c 0.319759,0.2779 0.641384,0.55369 0.9648,0.82733 h 0.0016 c 0.161509,0.13687 0.323344,0.27299 0.485756,0.40877 h 0.001 c 0.1623,0.13574 0.325154,0.27103 0.488341,0.40566 h 10e-4 c 0.163449,0.13461 0.327615,0.26858 0.491958,0.40204 0.329152,0.26708 0.660038,0.53209 0.992706,0.79478 0.166198,0.13145 0.332658,0.26241 0.499711,0.39274 h 0.001 c 1.002739,0.78144 2.021044,1.54266 3.054075,2.28358 h 0.0016 c 0.344434,0.24698 0.690501,0.49142 1.03818,0.73381 0.173595,0.12131 0.347527,0.24257 0.521932,0.36277 h 10e-4 c 0.523518,0.35984 1.050735,0.71414 1.581301,1.0635 h 10e-4 c 0.176731,0.11679 0.35374,0.23277 0.531236,0.3483 h 0.0015 c 0.532974,0.34595 1.068933,0.6869 1.608685,1.02216 h 0.0016 c 0.359738,0.22367 0.720981,0.44505 1.083656,0.66404 h 10e-4 c 0.181015,0.10935 0.362411,0.21786 0.544153,0.32608 h 10e-4 c 0.546394,0.32433 1.096254,0.64366 1.648995,0.95705 h 0.001 c 0.368382,0.20902 0.738373,0.41543 1.109494,0.6196 h 10e-4 c 0.18532,0.10237 0.371084,0.20419 0.557073,0.3054 h 10e-4 c 0.372311,0.2018 0.745906,0.40113 1.120863,0.5979 h 0.0015 c 0.375071,0.19662 0.750975,0.39069 1.128615,0.58239 h 0.0016 c 1.511906,0.76682 3.043582,1.49314 4.594035,2.17868 h 0.0016 c 0.387274,0.17159 0.775274,0.34059 1.164786,0.50695 h 0.0016 c 0.584432,0.24936 1.171342,0.49303 1.760616,0.7307 h 0.001 c 0.392798,0.15829 0.786458,0.31402 1.181322,0.46716 h 0.0016 c 0.197045,0.0767 0.394139,0.15292 0.591695,0.22841 h 0.0016 c 0.197834,0.0753 0.395946,0.1498 0.594278,0.22376 h 10e-4 c 0.198215,0.074 0.396597,0.14731 0.595313,0.22014 h 0.001 c 0.198622,0.0726 0.397769,0.14424 0.596862,0.21549 h 10e-4 c 0.398724,0.14295 0.798309,0.28311 1.198893,0.42064 h 0.0016 c 0.200178,0.0685 0.400362,0.13694 0.600995,0.20413 h 0.001 c 0.200586,0.0674 0.401524,0.13444 0.602546,0.2005 h 0.001 c 0.200967,0.0658 0.402174,0.13085 0.60358,0.19534 h 0.0016 c 0.201374,0.0647 0.402825,0.12916 0.604612,0.19275 h 0.001 c 0.40427,0.12649 0.809511,0.25034 1.21543,0.37155 0.609182,0.18197 1.220279,0.35777 1.832961,0.52762 0.204105,0.0566 0.408401,0.11271 0.612884,0.16795 h 0.001 c 0.52858,0.14273 1.058617,0.28123 1.589567,0.41496 l 0.01499,0.005 c 7.137836,1.79561 14.456841,2.7618 21.812625,2.882 a 55.855957,106.69942 35.702082 0 0 42.72969,-32.46417 c -13.09592,9.66196 -29.28211,15.37504 -46.8018,15.37529 -23.177681,-1e-4 -44.032341,-9.99822 -58.475495,-25.92607 z" />
    <path
       id="path881"
       style="fill:#ffc107;stroke-width:0.408581"
       d="M 148.07771,89.772911 A 16.919844,16.919844 0 0 1 131.15787,106.69275 16.919844,16.919844 0 0 1 114.23802,89.772911 16.919844,16.919844 0 0 1 131.15787,72.853067 16.919844,16.919844 0 0 1 148.07771,89.772911 Z" />
    <g
       aria-label="musik verlags daten bank"
       transform="matrix(2.3632503,0,0,2.3632503,106.00083,-117.39265)"
       id="text833"
       style="font-style:normal;font-variant:normal;font-weight:normal;font-stretch:normal;font-size:17.6389px;line-height:1.25;font-family:'Cotham Sans';-inkscape-font-specification:'Cotham Sans, Normal';font-variant-ligatures:normal;font-variant-caps:normal;font-variant-numeric:normal;font-variant-east-asian:normal;white-space:pre;shape-inside:url(#rect835-4);fill:#000000;fill-opacity:1;stroke:none">
      <path
         d="m 55.543668,62.488726 h 1.446389 v -4.49792 c 0,-2.010835 1.358196,-2.522363 2.169585,-2.522363 0.952501,0 1.816807,0.582084 1.816807,2.187224 v 4.833059 h 1.44639 v -5.150559 c 0,-1.922641 -1.023056,-3.227919 -2.945697,-3.227919 -1.27,0 -2.328335,0.705556 -2.734029,1.76389 -0.405695,-1.075973 -1.322918,-1.76389 -2.698752,-1.76389 -1.181806,0 -2.169585,0.687917 -2.628196,1.658056 v -1.569862 h -1.305279 v 8.290284 h 1.44639 v -4.639031 c 0.05292,-1.887363 1.375834,-2.381252 2.169585,-2.381252 0.9525,0 1.816807,0.582084 1.816807,2.187224 z"
         style="shape-inside:url(#rect835-4)"
         id="path2702" />
      <path
         d="m 65.950618,54.198442 h -1.44639 v 5.238754 c 0,1.92264 0.917223,3.227919 2.963335,3.227919 1.164168,0 2.151946,-0.687917 2.628197,-1.658057 v 1.481668 h 1.305278 v -8.290284 h -1.44639 v 4.586115 c 0,2.010834 -1.358195,2.522362 -2.169584,2.522362 -1.164168,0 -1.834446,-0.582083 -1.834446,-2.187223 z"
         style="fill:#000000;fill-opacity:0.495964"
         id="path2704" />
      <path
         d="m 79.39145,56.244555 c 0.07056,-1.499307 -1.675696,-2.134307 -2.980974,-2.134307 -2.204863,0 -3.069169,1.340556 -3.069169,2.434168 0,0.493889 0.141111,1.040695 0.582084,1.464029 0.440972,0.405695 1.164167,0.705556 2.151946,0.934862 1.252362,0.299861 2.08139,0.564444 2.08139,1.393473 0,0.687917 -0.617362,1.164167 -1.746251,1.164167 -1.164168,0 -1.834446,-0.511528 -2.010835,-1.622779 l -1.270001,0.317501 c -0.07055,1.658056 1.552223,2.451807 3.069169,2.451807 2.363613,0 3.404308,-1.217084 3.404308,-2.57528 0,-1.428751 -1.005418,-2.063751 -2.822224,-2.451807 -1.675696,-0.370417 -2.046113,-0.670278 -2.046113,-1.305279 0,-0.599722 0.599723,-1.058334 1.516946,-1.058334 0.811389,0 1.781529,0.299862 1.834445,1.270001 z"
         style="fill:#000000;fill-opacity:0.495964"
         id="path2706" />
      <path
         d="m 81.684507,62.488726 h 1.44639 v -8.290284 h -1.44639 z m -0.246945,-11.55348 c 0,0.582083 0.370417,0.934861 0.987779,0.934861 0.617361,0 0.970139,-0.352778 0.970139,-0.934861 0,-0.582084 -0.352778,-0.934862 -0.970139,-0.934862 -0.617362,0 -0.987779,0.352778 -0.987779,0.934862 z"
         style="fill:#000000;fill-opacity:0.495964"
         id="path2708" />
      <path
         d="m 85.864902,62.488726 h 1.446389 v -2.928058 l 1.058335,-1.040695 2.839863,3.968753 h 1.816806 l -3.580697,-5.027087 3.333753,-3.245558 h -1.852085 l -3.615975,3.580697 V 49.25955 h -1.446389 z"
         style="fill:#000000;fill-opacity:0.495964"
         id="path2710" />
      <path
         d="m 52.527415,84.537355 h 1.428751 l 3.122086,-8.290283 h -1.464029 l -2.381251,6.314727 -2.363613,-6.314727 h -1.481668 z"
         style="shape-inside:url(#rect835-4)"
         id="path2712" />
      <path
         d="m 63.957397,81.73277 c 0.01764,0.493889 -0.176389,0.881945 -0.440973,1.164168 -0.405694,0.405694 -0.899584,0.635 -1.534584,0.635 -1.746251,0 -2.398891,-1.270001 -2.469446,-2.839863 h 6.032504 v -0.987778 h -0.01764 c -0.03528,-2.187224 -1.569862,-3.545419 -3.633614,-3.545419 -2.257779,0 -3.827641,1.799167 -3.827641,4.374447 0,2.487085 1.217084,4.162781 3.668891,4.162781 1.181807,0 2.116668,-0.264584 2.822224,-0.97014 0.458612,-0.440973 0.881945,-1.093612 0.829029,-1.799168 z m -2.046113,-4.409725 c 1.252362,0 2.151946,0.934862 2.116668,2.381252 h -4.48028 c 0.176389,-1.340557 0.899584,-2.381252 2.363612,-2.381252 z"
         style="fill:#000000;fill-opacity:0.502143"
         id="path2714" />
      <path
         d="m 67.326423,84.537355 h 1.44639 v -3.986391 c 0.03528,-1.093612 0.282222,-1.940279 0.564445,-2.345974 0.246944,-0.440972 0.652639,-0.811389 1.146528,-0.811389 0.370417,0 0.934862,0.03528 1.164168,0.864306 0.05292,0.194028 0.05292,0.635 0.01764,0.9525 l 1.516945,-0.246944 c 0.01764,-0.211667 0.03528,-0.423334 0.03528,-0.599723 0,-1.516945 -0.987779,-2.204862 -2.416529,-2.204862 -0.881946,0 -1.728613,0.652639 -2.169585,1.658056 v -1.569862 h -1.305279 z"
         style="fill:#000000;fill-opacity:0.502143"
         id="path2716" />
      <path
         d="m 74.593643,84.537355 h 1.44639 V 71.30818 h -1.44639 z"
         style="fill:#000000;fill-opacity:0.502143"
         id="path2718" />
      <path
         d="m 83.183784,79.863047 -1.710974,0.03528 c -0.582083,0.01764 -1.199445,0.05292 -1.675695,0.194027 -1.234723,0.352778 -1.957918,1.146529 -1.957918,2.398891 0,1.358195 1.058334,2.222501 2.575279,2.222501 1.12889,0 2.081391,-0.582083 2.786947,-1.393473 l 0.15875,0.05292 c 0.05292,0.599723 0.546806,1.340556 1.481667,1.340556 0.246945,0 0.635001,-0.08819 0.740834,-0.123472 v -1.040695 c -0.776111,0.08819 -0.917223,-0.3175 -0.917223,-1.005417 v -3.280836 c 0,-2.575279 -1.675695,-3.104446 -3.280835,-3.104446 -1.658057,0 -3.316113,0.846667 -3.316113,2.275418 0,0.141111 0,0.229305 0.03528,0.388056 l 1.499307,0.105833 c -0.176389,-0.493889 -0.176389,-1.622779 1.799168,-1.622779 1.499306,0 1.781529,1.075973 1.781529,1.993196 z m -3.757086,2.522363 c 0,-1.093612 1.075973,-1.411113 2.134307,-1.464029 l 1.622779,-0.05292 v 1.058334 c -0.599723,1.040695 -1.658057,1.60514 -2.469446,1.60514 -0.758473,0 -1.28764,-0.370417 -1.28764,-1.146528 z"
         style="fill:#000000;fill-opacity:0.502143"
         id="path2720" />
      <path
         d="m 87.240703,79.17513 c 0,0.917222 0.388056,1.781529 1.199445,2.328334 -0.970139,0.388056 -1.305278,1.005418 -1.305278,1.587502 0,0.899583 0.617361,1.411112 1.499306,1.587501 -0.652639,0.105833 -1.869723,0.829028 -1.869723,1.799168 0,1.516945 1.393473,2.469446 3.862919,2.469446 1.728612,0 4.621392,-0.705556 4.621392,-3.033891 0,-1.675696 -1.728612,-2.363613 -3.598336,-2.363613 -2.575279,0 -3.016252,-0.05292 -3.016252,-0.776112 0,-0.282222 0.246945,-0.599722 0.846667,-0.776111 0.388056,0.105833 0.829029,0.15875 1.322918,0.15875 2.39889,0 3.563058,-1.411112 3.563058,-2.980974 0,-1.023057 -0.493889,-1.975557 -1.481668,-2.522363 -0.246944,-0.229306 -0.3175,-0.352778 -0.3175,-0.758473 0,-0.335139 0.264584,-0.79375 0.776112,-0.811389 0.546806,-0.01764 0.9525,0.123472 1.287639,0.546806 l 0.793751,-0.740834 c -0.370417,-0.670279 -1.058334,-0.97014 -1.993196,-0.97014 -1.040695,0 -2.046112,0.617362 -2.046112,1.693335 0,0.229305 0,0.423333 0.07055,0.599722 -0.211667,-0.03528 -0.423333,-0.05292 -0.652639,-0.05292 -2.381252,0 -3.563058,1.411112 -3.563058,3.016252 z m 1.075973,7.108477 c 0,-0.776112 0.864306,-1.234723 1.746251,-1.44639 h 0.194028 c 0.176389,0 0.388056,-0.01764 0.776112,-0.01764 2.08139,-0.03528 2.71639,0.599722 2.71639,1.305278 0,0.987779 -1.516945,1.569863 -3.086807,1.569863 -1.164168,0 -2.345974,-0.440973 -2.345974,-1.411111 z m 0.458611,-7.108477 c 0,-1.093612 0.758473,-1.940279 2.028474,-1.940279 1.28764,0 2.046112,0.846667 2.046112,1.940279 0,1.058334 -0.758472,1.905001 -2.046112,1.905001 -1.270001,0 -2.028474,-0.846667 -2.028474,-1.905001 z"
         style="fill:#000000;fill-opacity:0.502143"
         id="path2722" />
      <path
         d="m 102.16321,78.293185 c 0.0706,-1.499307 -1.67569,-2.134307 -2.980973,-2.134307 -2.204863,0 -3.069169,1.340556 -3.069169,2.434168 0,0.493889 0.141111,1.040695 0.582084,1.464029 0.440972,0.405694 1.164167,0.705556 2.151946,0.934861 1.252362,0.299862 2.081392,0.564445 2.081392,1.393474 0,0.687917 -0.61736,1.164167 -1.746253,1.164167 -1.164168,0 -1.834446,-0.511528 -2.010835,-1.622779 l -1.270001,0.3175 c -0.07056,1.658057 1.552223,2.451808 3.069169,2.451808 2.36361,0 3.40431,-1.217085 3.40431,-2.57528 0,-1.428751 -1.00542,-2.063751 -2.822226,-2.451807 -1.675696,-0.370417 -2.046113,-0.670278 -2.046113,-1.305279 0,-0.599722 0.599723,-1.058334 1.516946,-1.058334 0.811389,0 1.781533,0.299861 1.834443,1.270001 z"
         style="fill:#000000;fill-opacity:0.502143"
         id="path2724" />
      <path
         d="m 56.654918,105.35126 -0.05292,1.23473 H 57.85436 V 93.35681 h -1.464029 v 5.997226 c -0.529167,-0.705556 -1.358196,-1.199445 -2.540002,-1.199445 -2.24014,0 -4.109864,1.446389 -4.109864,4.374449 0,2.50472 1.658057,4.18042 3.827642,4.18042 1.322917,0 2.275418,-0.54681 2.857502,-1.42875 z m -2.751668,0.0882 c -1.217084,0 -2.522363,-0.75848 -2.522363,-3.05153 0,-2.34598 1.340556,-3.033894 2.487085,-3.033894 1.658057,0 2.522363,1.393474 2.522363,3.051534 v 0.12347 c 0,1.78153 -1.023056,2.91042 -2.487085,2.91042 z"
         style="shape-inside:url(#rect835-4)"
         id="path2726" />
      <path
         d="m 65.12158,101.91168 -1.710973,0.0353 c -0.582084,0.0176 -1.199445,0.0529 -1.675696,0.19403 -1.234723,0.35278 -1.957918,1.14653 -1.957918,2.39889 0,1.3582 1.058334,2.2225 2.57528,2.2225 1.12889,0 2.08139,-0.58208 2.786946,-1.39347 l 0.15875,0.0529 c 0.05292,0.59972 0.546806,1.34055 1.481668,1.34055 0.246945,0 0.635,-0.0882 0.740834,-0.12347 v -1.04069 c -0.776112,0.0882 -0.917223,-0.3175 -0.917223,-1.00542 v -3.28084 c 0,-2.575276 -1.675696,-3.104443 -3.280836,-3.104443 -1.658056,0 -3.316113,0.846668 -3.316113,2.275423 0,0.14111 0,0.2293 0.03528,0.38805 l 1.499307,0.10583 c -0.17639,-0.49388 -0.17639,-1.622774 1.799167,-1.622774 1.499307,0 1.781529,1.075974 1.781529,1.993194 z m -3.757086,2.52236 c 0,-1.09361 1.075973,-1.41111 2.134307,-1.46403 l 1.622779,-0.0529 v 1.05834 c -0.599722,1.04069 -1.658056,1.60514 -2.469446,1.60514 -0.758472,0 -1.28764,-0.37042 -1.28764,-1.14653 z"
         style="fill:#000000;fill-opacity:0.501633"
         id="path2728" />
      <path
         d="m 73.323638,99.459869 v -1.11125 H 71.20697 v -3.492503 l -1.44639,0.529167 v 2.963336 h -1.340556 v 1.11125 h 1.340556 v 4.497921 c 0,1.67569 -0.05292,2.73403 1.569863,2.73403 0.582083,0 1.27,-0.10583 1.76389,-0.26458 l -0.01764,-1.16417 c -0.388056,0.12347 -0.864306,0.17639 -1.164168,0.17639 -0.47625,0 -0.705556,-0.15875 -0.705556,-1.37584 v -4.603751 z"
         style="fill:#000000;fill-opacity:0.501633"
         id="path2730" />
      <path
         d="m 80.326254,103.7814 c 0.01764,0.49389 -0.176389,0.88195 -0.440972,1.16417 -0.405695,0.40569 -0.899584,0.635 -1.534585,0.635 -1.746251,0 -2.39889,-1.27 -2.469446,-2.83987 h 6.032504 v -0.98777 h -0.01764 c -0.03528,-2.187227 -1.569862,-3.545423 -3.633613,-3.545423 -2.25778,0 -3.827642,1.799173 -3.827642,4.374443 0,2.48709 1.217084,4.16279 3.668892,4.16279 1.181806,0 2.116668,-0.26459 2.822224,-0.97014 0.458611,-0.44098 0.881945,-1.09362 0.829028,-1.79917 z m -2.046112,-4.409725 c 1.252362,0 2.151946,0.934865 2.116668,2.381255 h -4.480281 c 0.176389,-1.34056 0.899584,-2.381255 2.363613,-2.381255 z"
         style="fill:#000000;fill-opacity:0.501633"
         id="path2732" />
      <path
         d="m 89.516115,106.58599 h 1.44639 v -5.15056 c 0,-1.922644 -0.917223,-3.227923 -2.963336,-3.227923 -1.181806,0 -2.169584,0.687917 -2.628196,1.658057 v -1.569862 h -1.305278 v 8.290288 h 1.446389 v -4.63904 c 0.05292,-1.88736 1.375835,-2.381247 2.169585,-2.381247 1.058334,0 1.834446,0.582087 1.834446,2.187227 z"
         style="fill:#000000;fill-opacity:0.501633"
         id="path2734" />
      <path
         d="m 50.110886,128.63461 h 1.270001 l -0.07056,-1.11125 0.194028,-0.0882 c 0.529167,0.75847 1.375835,1.34056 2.592919,1.34056 2.24014,0 4.092225,-1.44639 4.092225,-4.37445 0,-2.50473 -1.640418,-4.18042 -3.810003,-4.18042 -1.305279,0 -2.257779,0.65264 -2.822224,1.53458 v -6.35 h -1.44639 z m 3.933475,-7.14375 c 1.217084,0 2.522363,0.75847 2.522363,3.05153 0,2.34597 -1.340557,3.03389 -2.487085,3.03389 -1.658057,0 -2.522363,-1.39347 -2.522363,-3.05153 v -0.24694 c 0.05292,-1.71098 1.058334,-2.78695 2.487085,-2.78695 z"
         style="shape-inside:url(#rect835-4)"
         id="path2736" />
      <path
         d="m 64.856974,123.96031 -1.710973,0.0353 c -0.582084,0.0176 -1.199446,0.0529 -1.675696,0.19403 -1.234723,0.35278 -1.957918,1.14653 -1.957918,2.39889 0,1.3582 1.058334,2.2225 2.575279,2.2225 1.12889,0 2.081391,-0.58208 2.786947,-1.39347 l 0.15875,0.0529 c 0.05292,0.59972 0.546806,1.34055 1.481668,1.34055 0.246944,0 0.635,-0.0882 0.740833,-0.12347 v -1.04069 c -0.776111,0.0882 -0.917222,-0.3175 -0.917222,-1.00542 v -3.28084 c 0,-2.57528 -1.675696,-3.10444 -3.280836,-3.10444 -1.658057,0 -3.316113,0.84666 -3.316113,2.27542 0,0.14111 0,0.2293 0.03528,0.38805 l 1.499307,0.10583 c -0.176389,-0.49388 -0.176389,-1.62277 1.799168,-1.62277 1.499306,0 1.781529,1.07597 1.781529,1.99319 z m -3.757086,2.52236 c 0,-1.09361 1.075973,-1.41111 2.134307,-1.46403 l 1.622779,-0.0529 v 1.05834 c -0.599723,1.04069 -1.658057,1.60514 -2.469446,1.60514 -0.758473,0 -1.28764,-0.37042 -1.28764,-1.14653 z"
         style="fill:#000000;fill-opacity:0.500978"
         id="path2738" />
      <path
         d="m 74.734728,128.63461 h 1.446389 v -5.15055 c 0,-1.92264 -0.917222,-3.22792 -2.963335,-3.22792 -1.181806,0 -2.169585,0.68791 -2.628196,1.65805 v -1.56986 h -1.305279 v 8.29028 h 1.44639 v -4.63903 c 0.05292,-1.88736 1.375834,-2.38125 2.169585,-2.38125 1.058334,0 1.834446,0.58209 1.834446,2.18723 z"
         style="fill:#000000;fill-opacity:0.500978"
         id="path2740" />
      <path
         d="m 78.632922,128.63461 h 1.44639 v -2.92805 l 1.058334,-1.0407 2.839863,3.96875 h 1.816807 l -3.580697,-5.02708 3.333752,-3.24556 h -1.852084 l -3.615975,3.5807 v -8.53723 h -1.44639 z"
         style="fill:#000000;fill-opacity:0.500978"
         id="path2742" />
    </g>
  </g>
</svg>
