<?xml version="1.0" encoding="UTF-8" standalone="no"?>
<svg
   xmlns:dc="http://purl.org/dc/elements/1.1/"
   xmlns:cc="http://creativecommons.org/ns#"
   xmlns:rdf="http://www.w3.org/1999/02/22-rdf-syntax-ns#"
   xmlns:svg="http://www.w3.org/2000/svg"
   xmlns="http://www.w3.org/2000/svg"
   xmlns:sodipodi="http://sodipodi.sourceforge.net/DTD/sodipodi-0.dtd"
   xmlns:inkscape="http://www.inkscape.org/namespaces/inkscape"
   width="229.98907mm"
   height="225.85722mm"
   viewBox="0 0 229.98907 225.85722"
   version="1.1"
   id="svg893"
   sodipodi:docname="logo-yelloblu-shadow.svg"
   inkscape:version="1.0.1 (3bc2e813f5, 2020-09-07, custom)">
  <defs
     id="defs887">
    <filter
       style="color-interpolation-filters:sRGB"
       inkscape:label="Drop Shadow"
       id="filter2317">
      <feFlood
         flood-opacity="0.498039"
         flood-color="rgb(0,0,0)"
         result="flood"
         id="feFlood2307" />
      <feComposite
         in="flood"
         in2="SourceGraphic"
         operator="in"
         result="composite1"
         id="feComposite2309" />
      <feGaussianBlur
         in="composite1"
         stdDeviation="3"
         result="blur"
         id="feGaussianBlur2311" />
      <feOffset
         dx="6"
         dy="6"
         result="offset"
         id="feOffset2313" />
      <feComposite
         in="SourceGraphic"
         in2="offset"
         operator="over"
         result="composite2"
         id="feComposite2315" />
    </filter>
  </defs>
  <sodipodi:namedview
     id="base"
     pagecolor="#ffffff"
     bordercolor="#666666"
     borderopacity="1.0"
     inkscape:pageopacity="0.0"
     inkscape:pageshadow="2"
     inkscape:zoom="1.4"
     inkscape:cx="304.77295"
     inkscape:cy="449.52221"
     inkscape:document-units="mm"
     inkscape:current-layer="layer1"
     inkscape:document-rotation="0"
     showgrid="false"
     inkscape:object-paths="true"
     inkscape:snap-intersection-paths="true"
     inkscape:snap-smooth-nodes="true"
     inkscape:snap-midpoints="true"
     inkscape:window-width="2560"
     inkscape:window-height="1416"
     inkscape:window-x="0"
     inkscape:window-y="0"
     inkscape:window-maximized="0"
     fit-margin-top="0"
     fit-margin-left="0"
     fit-margin-right="0"
     fit-margin-bottom="0" />
  <metadata
     id="metadata890">
    <rdf:RDF>
      <cc:Work
         rdf:about="">
        <dc:format>image/svg+xml</dc:format>
        <dc:type
           rdf:resource="http://purl.org/dc/dcmitype/StillImage" />
        <dc:title></dc:title>
      </cc:Work>
    </rdf:RDF>
  </metadata>
  <g
     inkscape:label="Layer 1"
     inkscape:groupmode="layer"
     id="layer1"
     transform="translate(6.321467,20.08272)">
    <path
       id="path1460"
       style="opacity:1;fill:#106e7d;stroke-width:2.57198;filter:url(#filter2317)"
       d="M 265.96289,0 C 108.84793,43.296945 2.6456693e-5,186.19828 0,349.16992 c 9.4488189e-5,8.81212 0.32216532,17.62147 0.96484375,26.41016 0.11701415,1.59794 0.24449695,3.19473 0.38281245,4.79101 0.1312252,1.5261 0.2712949,3.05185 0.421875,4.57618 l 0.023438,0.20703 v 0.004 c 1.5130204,15.14865 3.9791656,30.18716 7.3847656,45.02539 0.3581102,1.56133 0.7266996,3.1193 1.1054682,4.67579 0.947131,3.89045 1.95956,7.76419 3.035156,11.62109 0.430107,1.54428 0.869695,3.08658 1.320313,4.625 0.901757,3.07457 1.8451,6.13603 2.828125,9.18555 0.491973,1.52417 0.993729,3.04502 1.505859,4.5625 0.255836,0.7601 0.514532,1.5192 0.775391,2.27734 0.521374,1.514 1.052336,3.0242 1.59375,4.53125 0.541999,1.5083 1.09431,3.01267 1.65625,4.51367 0.562537,1.4996 1.134387,2.99628 1.716797,4.48828 0.581711,1.49246 1.173931,2.98029 1.77539,4.46485 1.202665,2.96991 2.44358,5.92452 3.72461,8.86132 0.640599,1.46937 1.291153,2.93379 1.951172,4.39454 1.650024,3.648 3.360789,7.26998 5.130859,10.86132 1.061964,2.1569 2.145293,4.30222 3.25,6.4375 1.840959,3.5559 3.741371,7.08141 5.699219,10.57422 0.783428,1.39831 1.575016,2.79181 2.376953,4.17969 0.401389,0.69286 0.804952,1.38419 1.210937,2.07422 0.809934,1.38236 1.628786,2.75934 2.457032,4.13086 0.414682,0.68515 0.832822,1.36808 1.251953,2.05078 1.258307,2.04726 2.53714,4.08169 3.835937,6.10352 0.864533,1.34743 1.736825,2.68947 2.619141,4.02539 0.883672,1.33727 1.776385,2.66866 2.677734,3.99414 0.449961,0.66217 0.903108,1.32331 1.357422,1.98242 0.910228,1.31845 1.828224,2.63122 2.755859,3.9375 2.780913,3.9202 5.639484,7.7834 8.574219,11.58984 0.978078,1.26894 1.964149,2.53328 2.958985,3.78906 1.989777,2.51203 4.014555,4.99684 6.070312,7.45508 1.028277,1.22831 2.062934,2.44966 3.107422,3.66407 0.522059,0.60755 1.046201,1.21378 1.572266,1.81835 1.051895,1.20783 2.111861,2.40976 3.179687,3.60352 1.068132,1.19327 2.144646,2.37762 3.228516,3.55664 1.084361,1.18012 2.177418,2.35393 3.277343,3.51953 1.099144,1.16557 2.205798,2.32371 3.320308,3.47461 0.55735,0.57438 1.11654,1.14617 1.67774,1.7168 0.56177,0.5718 1.12581,1.14134 1.69141,1.70898 1.12869,1.13639 2.26453,2.26537 3.4082,3.38672 h 0.004 c 0.57063,0.5599 1.14441,1.11794 1.71874,1.67383 h 0.004 c 0.57506,0.5565 1.15171,1.11104 1.73047,1.66406 h 0.004 c 0.57804,0.55223 1.15857,1.10371 1.74023,1.65235 h 0.002 c 0.58239,0.54965 1.16786,1.097 1.75391,1.64257 h 0.004 c 1.17306,1.08972 2.35362,2.17207 3.54101,3.2461 0.54245,0.4902 1.09717,0.96624 1.64258,1.45312 a 211.10913,403.2734 35.702082 0 1 -0.0371,-0.25195 211.10913,403.2734 35.702082 0 0 0.0391,0.25195 c 1.24665,1.11288 2.49002,2.22873 3.75196,3.32422 h 0.004 c 1.20854,1.05033 2.42413,2.09272 3.64649,3.12695 h 0.006 c 0.61042,0.51731 1.22209,1.03174 1.83593,1.54493 h 0.004 c 0.61342,0.51303 1.22893,1.02436 1.8457,1.5332 h 0.004 c 0.61776,0.50876 1.23824,1.01511 1.85937,1.51953 1.24404,1.00944 2.49463,2.01106 3.75196,3.00391 0.62815,0.49682 1.25729,0.99179 1.88867,1.48437 h 0.002 c 3.78988,2.95348 7.6386,5.83053 11.54297,8.63086 h 0.008 c 1.3018,0.93347 2.60977,1.85732 3.92383,2.77344 0.65611,0.45849 1.31349,0.91679 1.97266,1.37109 h 0.004 c 1.97866,1.36003 3.97128,2.69912 5.97657,4.01953 h 0.002 c 0.66796,0.44141 1.33696,0.87976 2.00781,1.31641 h 0.006 c 2.01439,1.30753 4.04007,2.59616 6.08008,3.86328 h 0.006 c 1.35964,0.84537 2.72496,1.68209 4.0957,2.50977 h 0.004 c 0.68415,0.41329 1.36974,0.8234 2.05664,1.23242 h 0.004 c 2.06511,1.22581 4.14332,2.43272 6.23242,3.61719 h 0.004 c 1.39231,0.78999 2.7907,1.57013 4.19336,2.34179 h 0.004 c 0.70042,0.38691 1.40252,0.77177 2.10547,1.1543 h 0.004 c 1.40716,0.76271 2.81917,1.51607 4.23633,2.25977 h 0.006 c 1.41759,0.74313 2.83833,1.47663 4.26563,2.20117 h 0.006 c 5.71429,2.89821 11.5033,5.64336 17.36328,8.23437 h 0.006 c 1.46371,0.64853 2.93017,1.28726 4.40234,1.91602 h 0.006 c 2.20888,0.94246 4.42712,1.86344 6.6543,2.76172 h 0.004 c 1.48459,0.59826 2.97245,1.18683 4.46485,1.76562 h 0.006 c 0.74473,0.28989 1.48966,0.57797 2.23632,0.86328 h 0.006 c 0.74772,0.2846 1.4965,0.56617 2.2461,0.84571 h 0.004 c 0.74916,0.27968 1.49895,0.55676 2.25,0.83203 H 238 c 0.7507,0.27439 1.50338,0.54516 2.25586,0.81445 h 0.004 c 1.50698,0.54028 3.01723,1.07005 4.53125,1.58984 h 0.006 c 0.75657,0.2589 1.51318,0.51754 2.27148,0.77149 h 0.004 c 0.75812,0.25474 1.51757,0.50814 2.27734,0.75781 h 0.004 c 0.75956,0.24869 1.52003,0.49454 2.28125,0.73828 h 0.006 c 0.7611,0.24454 1.5225,0.48818 2.28516,0.72852 h 0.004 c 1.52795,0.47807 3.05957,0.94618 4.59375,1.40429 2.30242,0.68777 4.61208,1.35219 6.92773,1.99415 0.77142,0.21392 1.54356,0.42598 2.31641,0.63476 h 0.004 c 1.99779,0.53945 4.00108,1.06292 6.00782,1.56836 l 0.0566,0.0195 c 1.77545,0.44664 3.55471,0.87546 5.33594,1.29492 0.32379,0.0764 0.64867,0.14745 0.97265,0.22266 1.42747,0.33201 2.85615,0.66006 4.28711,0.97461 0.52752,0.11603 1.05602,0.22646 1.58398,0.33984 1.45286,0.31256 2.90706,0.61755 4.36329,0.91211 0.41533,0.0828 0.83065,0.16558 1.24609,0.24805 1.13337,0.22512 2.26706,0.44789 3.40234,0.66211 0.24719,0.0467 0.49475,0.0913 0.74219,0.13672 0.46286,0.0849 0.92581,0.1693 1.38867,0.2539 1.42978,0.26095 2.86038,0.51415 4.29297,0.75782 0.40299,0.0683 0.80577,0.13795 1.20899,0.20507 0.99829,0.16633 1.99652,0.33035 2.99609,0.48829 0.43714,0.0691 0.8749,0.13453 1.3125,0.20117 0.31385,0.0478 0.62749,0.0968 0.94141,0.14453 1.0391,0.15748 2.07876,0.31252 3.11914,0.46094 0.76135,0.10885 1.52315,0.2148 2.28515,0.31836 0.99292,0.1352 1.98648,0.26562 2.98047,0.39257 0.34747,0.0444 0.69537,0.0854 1.04297,0.12891 0.48437,0.0606 0.96849,0.12311 1.45313,0.18164 0.93451,0.11277 1.86931,0.22069 2.80468,0.32617 0.8566,0.0968 1.71303,0.19287 2.57032,0.28321 0.95971,0.10128 1.92032,0.19544 2.88086,0.28906 0.82019,0.0801 1.64021,0.16187 2.46093,0.23633 0.97347,0.0882 1.94765,0.16774 2.92188,0.24804 0.21615,0.0178 0.43232,0.0349 0.64843,0.0527 0.61384,0.0507 1.22764,0.10203 1.8418,0.14843 0.88558,0.0669 1.77208,0.12521 2.6582,0.18555 0.95116,0.0646 1.90176,0.13238 2.85352,0.18945 0.74003,0.0445 1.48034,0.0811 2.2207,0.1211 1.02656,0.0556 2.05292,0.11524 3.08008,0.16211 3.51202,0.15972 7.02735,0.26869 10.54492,0.32617 a 211.10913,403.2734 35.702082 0 0 0.004,-0.002 c 1.96808,0.0302 3.937,0.0508 5.90625,0.0508 200.03112,0.001 362.18867,-162.15643 362.1875,-362.1875 6e-4,-41.78692 -9.27055,-81.40114 -25.83984,-116.92774 a 211.10913,403.2734 35.702082 0 0 0,-0.002 C 663.75069,157.66371 596.73051,101.15646 515.38867,80.630859 c -0.002,-6.18e-4 -0.005,6.19e-4 -0.008,0 -0.44416,-0.112064 -0.89093,-0.218209 -1.33594,-0.328125 -0.0839,-0.02073 -0.16799,-0.04184 -0.25195,-0.0625 -0.9535,-0.234556 -1.90788,-0.468707 -2.86524,-0.693359 -0.0411,-0.0096 -0.082,-0.01968 -0.12304,-0.0293 -0.56255,-0.131734 -1.12755,-0.256467 -1.69141,-0.384766 -0.62915,-0.143161 -1.25595,-0.292773 -1.88672,-0.43164 0.58115,0.127948 1.15851,0.266846 1.73828,0.398437 -18.87913,-4.284723 -38.48627,-6.649601 -58.61328,-6.859375 -0.98041,-0.0102 -1.95666,-0.03711 -2.93945,-0.03711 h -0.0664 -0.004 C 294.40336,72.240542 147.69922,196.23336 147.69922,349.17188 v 0.24609 h 0.01 c -0.0788,21.56585 3.38706,41.31815 9.69336,59.16406 0.42424,1.20052 0.86077,2.39298 1.31055,3.57617 0.24953,0.65643 0.51224,1.30402 0.76953,1.95508 0.26229,0.66371 0.52269,1.32819 0.79297,1.98633 0.28535,0.69487 0.57887,1.38364 0.87305,2.07227 0.24394,0.57106 0.49028,1.14025 0.74023,1.70703 0.30996,0.7028 0.62231,1.40338 0.94141,2.09961 0.2644,0.57688 0.53601,1.14836 0.80664,1.7207 0.32213,0.68126 0.6418,1.36423 0.97266,2.03906 0.29732,0.60643 0.60585,1.20543 0.91015,1.80664 0.57615,1.13831 1.16482,2.26716 1.76563,3.38672 0.005,0.0102 0.0101,0.021 0.0156,0.0312 0.30861,0.57478 0.61467,1.15089 0.92969,1.7207 0.37808,0.68387 0.76513,1.36039 1.15234,2.03711 0.27492,0.48049 0.5506,0.96063 0.83008,1.4375 0.40366,0.68875 0.81154,1.37351 1.22461,2.05469 0.32023,0.52811 0.64488,1.05261 0.9707,1.57617 0.36851,0.5921 0.73575,1.18521 1.11133,1.77149 0.37652,0.58778 0.76098,1.16808 1.14453,1.75 0.0134,0.0204 0.0276,0.0402 0.041,0.0605 0.70948,1.07534 1.43094,2.14009 2.16406,3.19532 0.33519,0.48245 0.66581,0.96903 1.00586,1.44726 0.42202,0.5935 0.85377,1.17863 1.2832,1.76563 0.37563,0.51345 0.75158,1.02668 1.13282,1.53515 0.408,0.54418 0.82002,1.08462 1.23437,1.62305 0.4237,0.55061 0.85099,1.09796 1.28125,1.64258 0.10686,0.13525 0.21522,0.26918 0.32227,0.4043 0.31191,0.39369 0.62342,0.78773 0.93945,1.17773 1.62757,2.00865 3.29669,3.97755 5.01172,5.90234 0.43472,0.4879 0.87818,0.9668 1.31836,1.44922 0.59785,0.65531 1.20083,1.30587 1.80859,1.95117 0.345,0.36597 0.6891,0.73279 1.03711,1.09571 0.42324,0.4414 0.8495,0.87979 1.27734,1.3164 0.50854,0.51893 1.01825,1.03667 1.53321,1.54883 0.44625,0.44385 0.8986,0.88155 1.34961,1.32031 0.50933,0.4955 1.01593,0.99347 1.53125,1.48243 0.8879,0.84255 1.78219,1.67485 2.6875,2.49804 0.49258,0.44788 0.99455,0.886 1.49218,1.32813 0.48459,0.43056 0.96773,0.86396 1.45704,1.28906 0.5432,0.47191 1.09167,0.9372 1.64062,1.40234 0.75786,0.64222 1.52243,1.27692 2.29102,1.90625 0.25315,0.20776 0.50515,0.41692 0.75976,0.62305 0.50266,0.40697 1.00854,0.80945 1.51563,1.21094 0.55139,0.43653 1.10166,0.87465 1.6582,1.30469 0.56163,0.434 1.13047,0.85972 1.69727,1.2871 0.0167,0.0126 0.034,0.0245 0.0508,0.0371 0.83582,0.6298 1.67663,1.25378 2.52343,1.86915 0.0162,0.0118 0.0326,0.0234 0.0488,0.0351 0.61173,0.44423 1.22252,0.88948 1.83985,1.32617 0.53793,0.38049 1.08095,0.75413 1.62304,1.12891 0.57868,0.40007 1.15884,0.79788 1.74219,1.19141 0.53515,0.36094 1.07231,0.71879 1.61133,1.07421 0.81706,0.53886 1.63909,1.06957 2.46484,1.59571 0.29951,0.19292 0.59868,0.38635 0.90039,0.57617 2.50916,1.57871 5.06071,3.0952 7.64453,4.55664 0.1865,0.10431 0.37226,0.20989 0.5586,0.31445 0.67542,0.37906 1.35105,0.75593 2.03125,1.12696 0.57611,0.31407 1.15491,0.62315 1.73437,0.93164 0.63276,0.33685 1.26763,0.67003 1.9043,1 0.54554,0.28271 1.09032,0.5661 1.63867,0.84375 1.21321,0.61433 2.43167,1.21913 3.65821,1.80859 7.8e-4,3.8e-4 0.001,0.002 0.002,0.002 1.1511,0.55319 2.30838,1.09575 3.4707,1.62696 0.45459,0.20787 0.91289,0.40697 1.36914,0.61133 0.78382,0.35113 1.56881,0.69984 2.35742,1.04101 0.52021,0.22488 1.04223,0.44529 1.56446,0.66602 1.05598,0.44627 2.11568,0.88402 3.17968,1.3125 0.2239,0.0906 0.44743,0.18203 0.67188,0.27148 0.7835,0.31227 1.5698,0.61731 2.35742,0.91992 0.45585,0.17528 0.91015,0.35323 1.36719,0.52539 0.0156,0.006 0.0312,0.0117 0.0469,0.0176 1.23447,0.46381 2.47292,0.91727 3.7168,1.35742 0.3758,0.13304 0.75423,0.25775 1.13086,0.38868 0.88095,0.30597 1.76311,0.61018 2.64844,0.90429 0.30116,0.1001 0.60403,0.1956 0.90625,0.29297 0.28276,0.0912 0.56485,0.18424 0.84765,0.27539 0.7428,0.23944 1.48677,0.47592 2.23243,0.70703 0.54937,0.17046 1.09952,0.33825 1.65039,0.50391 0.82217,0.24738 1.64531,0.48929 2.4707,0.72656 0.19078,0.0548 0.38163,0.10909 0.57227,0.16406 0.27977,0.0807 0.55939,0.16184 0.83984,0.24024 1.07168,0.29993 2.14602,0.59014 3.22266,0.87305 0.25553,0.0673 0.50979,0.13855 0.76562,0.20507 1.29833,0.33592 2.60137,0.65764 3.90625,0.96875 0.41537,0.099 0.83205,0.19269 1.24805,0.28907 1.09952,0.25509 2.20103,0.50082 3.30468,0.73828 0.30723,0.066 0.61433,0.13278 0.92188,0.19726 1.3691,0.28819 2.7405,0.56517 4.11523,0.82617 0.0208,0.004 0.0417,0.008 0.0625,0.0117 0.94467,0.17906 1.89083,0.34749 2.83789,0.51368 0.39727,0.0695 0.79376,0.14366 1.19141,0.21093 1.52744,0.25904 3.05908,0.49914 4.5918,0.72461 0.15041,0.0213 0.30082,0.0426 0.45117,0.0645 0.98234,0.14235 1.96504,0.27967 2.94922,0.4082 0.26284,0.0343 0.52606,0.0651 0.78906,0.0977 0.29624,0.0367 0.59229,0.0751 0.88867,0.11133 0.79832,0.0978 1.59719,0.19063 2.39649,0.2793 0.56567,0.0627 1.13115,0.12539 1.69726,0.18359 0.97274,0.1 1.94607,0.1909 2.91992,0.27735 0.35029,0.0302 0.70039,0.0666 1.05079,0.0957 1.34073,0.11226 2.68123,0.21423 4.02343,0.30078 0.42565,0.0265 0.85159,0.0477 1.27735,0.0723 0.97174,0.0567 1.94386,0.10913 2.91601,0.15234 0.45581,0.0189 0.91134,0.0342 1.36719,0.0527 1.29475,0.0491 2.58991,0.0863 3.88477,0.11133 0.14322,0.003 0.28643,0.007 0.42968,0.01 0.91432,0.0158 1.82807,0.0236 2.74219,0.0273 1.81034,0.007 3.62119,-10e-4 5.42969,-0.041 94.132,-8.3e-4 170.43905,-81.26063 170.4375,-175.39258 5e-5,-1.70387 -0.0868,-3.38702 -0.21289,-5.05859 a 63.949017,63.949017 0 0 0 0.002,-0.29297 63.949017,63.949017 0 0 0 -63.94922,-63.94922 63.949017,63.949017 0 0 0 -63.94922,63.94922 63.949017,63.949017 0 0 0 63.94922,63.94921 63.949017,63.949017 0 0 0 18.58594,-2.76171 c -8.56561,11.51241 -19.01738,22.60024 -30.72461,32.49023 -1.35607,1.14558 -2.72841,2.27474 -4.11719,3.38672 -0.0159,0.0127 -0.031,0.0263 -0.0469,0.0391 -26.49783,21.20352 -58.75189,36.0767 -89.97461,36.07813 -70.59943,6e-4 -127.8326,-57.23071 -127.83203,-127.83008 -0.002,-0.32126 -0.004,-0.64374 -0.004,-0.96485 0,-1.63525 0.0258,-3.26419 0.0625,-4.89062 4.8e-4,-0.0214 -4.9e-4,-0.043 0,-0.0645 0.009,-0.3916 0.0202,-0.78276 0.0312,-1.17383 3.7e-4,-0.0131 0.002,-0.026 0.002,-0.0391 0.0401,-1.40976 0.0927,-2.816 0.16016,-4.21875 0.0121,-0.25237 0.0202,-0.50568 0.0332,-0.75782 0.0818,-1.58541 0.18449,-3.16614 0.30078,-4.74218 0.0321,-0.43556 0.0668,-0.86987 0.10157,-1.30469 0.002,-0.0196 0.004,-0.039 0.006,-0.0586 0.10004,-1.24727 0.21058,-2.4913 0.33203,-3.73242 0.0377,-0.38525 0.0716,-0.7716 0.11133,-1.15625 0.15617,-1.51133 0.328,-3.01775 0.51562,-4.51953 7.3e-4,-0.006 10e-4,-0.0117 0.002,-0.0176 0.0618,-0.49457 0.1301,-0.98695 0.19532,-1.48046 0.003,-0.0222 0.007,-0.0442 0.01,-0.0664 0.14741,-1.1128 0.30228,-2.22277 0.4668,-3.33008 0.069,-0.46431 0.13506,-0.92925 0.20703,-1.39258 0.003,-0.0176 0.005,-0.0351 0.008,-0.0527 0.22972,-1.47635 0.47255,-2.94986 0.73242,-4.41602 0.003,-0.0149 0.005,-0.03 0.008,-0.0449 0.0671,-0.37813 0.14184,-0.75342 0.21093,-1.13086 0.20835,-1.13808 0.426,-2.27261 0.65235,-3.4043 0.11652,-0.58256 0.23421,-1.16525 0.35547,-1.74609 0.25726,-1.2323 0.52234,-2.46115 0.80078,-3.68555 0.007,-0.0298 0.0127,-0.06 0.0195,-0.0898 0.10449,-0.45858 0.21287,-0.9156 0.32031,-1.37305 0.27478,-1.16986 0.55956,-2.33569 0.85352,-3.49804 8.1e-4,-0.003 0.001,-0.007 0.002,-0.01 0.14729,-0.58228 0.29716,-1.16378 0.44922,-1.74414 0.003,-0.0118 0.007,-0.0234 0.01,-0.0352 0.26989,-1.02932 0.54917,-2.05493 0.83399,-3.07812 8.9e-4,-0.003 0.001,-0.007 0.002,-0.01 0.12953,-0.46524 0.25412,-0.93252 0.38672,-1.39648 16.79286,-58.76147 58.18216,-107.1426 112.32291,-133.29269 1.70597,-0.82399 3.42534,-1.62481 5.15625,-2.4043 0.005,-0.002 0.0106,-0.004 0.0156,-0.006 0.30049,-0.13529 0.60502,-0.26254 0.90624,-0.39648 1.39893,-0.62202 2.80219,-1.2336 4.2168,-1.82617 0.48231,-0.20204 0.96902,-0.39517 1.45313,-0.59375 1.22678,-0.50324 2.45718,-0.99958 3.69531,-1.48047 0.60919,-0.23661 1.2221,-0.46612 1.83398,-0.69727 1.11746,-0.42214 2.23891,-0.83838 3.36524,-1.24218 0.0168,-0.006 0.0339,-0.0115 0.0508,-0.0176 0.64827,-0.23223 1.29805,-0.4614 1.94922,-0.6875 0.0195,-0.007 0.0391,-0.0128 0.0586,-0.0195 1.09933,-0.38137 2.20312,-0.75145 3.31055,-1.11524 0.64909,-0.21322 1.29739,-0.42762 1.94922,-0.63476 0.005,-0.001 0.009,-0.002 0.0137,-0.004 1.21475,-0.38594 2.43607,-0.75646 3.66016,-1.12109 0.56917,-0.16955 1.13587,-0.34486 1.70703,-0.50977 0.005,-0.001 0.0105,-0.002 0.0156,-0.004 1.29752,-0.37452 2.60259,-0.72968 3.91016,-1.08007 0.53187,-0.14253 1.06024,-0.29314 1.59375,-0.43164 3.65798,-0.94967 7.35436,-1.80512 11.08594,-2.5625 0.45599,-0.0926 0.916,-0.17404 1.37304,-0.26368 0.0501,-0.01 0.1003,-0.0195 0.15039,-0.0293 1.34322,-0.26242 2.6889,-0.51882 4.04102,-0.75586 0.01,-0.002 0.0196,-0.002 0.0293,-0.004 0.66673,-0.11679 1.337,-0.22341 2.00586,-0.33398 0.0286,-0.005 0.0573,-0.009 0.0859,-0.0137 1.1603,-0.19133 2.32174,-0.37827 3.48828,-0.55078 0.79949,-0.11822 1.60194,-0.22662 2.4043,-0.33593 1.11529,-0.15195 2.2328,-0.29703 3.35352,-0.43164 0.75985,-0.0913 1.5209,-0.17847 2.2832,-0.26172 1.19543,-0.13055 2.39441,-0.25065 3.5957,-0.36133 0.0156,-0.001 0.0313,-0.002 0.0469,-0.004 0.71496,-0.0657 1.4295,-0.13277 2.14648,-0.1914 0.01,-8e-4 0.0195,-0.001 0.0293,-0.002 1.18968,-0.0971 2.38299,-0.17837 3.57812,-0.25586 0.75251,-0.0488 1.5032,-0.10357 2.25782,-0.14453 0.0137,-7.5e-4 0.0273,-0.001 0.041,-0.002 1.23253,-0.0667 2.47098,-0.11259 3.70899,-0.1582 0.01,-3.6e-4 0.0195,-0.002 0.0293,-0.002 0.70069,-0.0257 1.39917,-0.0611 2.10157,-0.0801 0.008,-2.2e-4 0.0156,2e-4 0.0234,0 1.93542,-0.052 3.87626,-0.082 5.82422,-0.082 22.06211,-2e-5 43.33977,3.3532 63.35352,9.57813 1.66861,0.51899 3.32777,1.05855 4.97851,1.61719 29.69838,10.05032 56.4617,26.47044 78.66016,47.63476 1.23362,1.17615 2.4511,2.3671 3.65625,3.57227 38.55405,38.55456 62.4024,91.81668 62.40234,150.64843 -0.001,0.23963 -0.002,0.47816 -0.004,0.7168 -0.0407,16.87775 -1.50009,33.42009 -4.23828,49.52539 -0.0928,0.54585 -0.17963,1.09385 -0.2754,1.63867 -0.28035,1.59502 -0.57917,3.18336 -0.88476,4.76954 -0.11092,0.57573 -0.21976,1.15201 -0.33398,1.72656 -0.33555,1.68781 -0.683,3.37141 -1.04688,5.04883 -0.0708,0.32649 -0.14295,0.65241 -0.21484,0.97851 -0.007,0.0313 -0.0146,0.0625 -0.0215,0.0937 -2.64557,11.98151 -6.00421,23.69416 -10.03906,35.08789 -4.8e-4,0.001 -10e-4,0.003 -0.002,0.004 -20.08139,56.70368 -56.81032,105.51742 -104.32227,140.57031 -6.02395,4.44438 -12.22405,8.66213 -18.58203,12.65234 -0.40223,0.25244 -0.80547,0.50334 -1.20898,0.75391 -0.01,0.006 -0.0196,0.0116 -0.0293,0.0176 -1.35668,0.84223 -2.71683,1.67904 -4.08789,2.5 -0.22277,0.13339 -0.44873,0.26171 -0.67188,0.39453 -0.0118,0.007 -0.0234,0.0145 -0.0351,0.0215 -4.46078,2.65436 -8.99856,5.19282 -13.60547,7.61719 -0.43785,0.23042 -0.87338,0.46506 -1.3125,0.69336 -0.0227,0.0118 -0.0456,0.0233 -0.0684,0.0352 -1.30434,0.67769 -2.61612,1.34305 -3.93164,2.00195 -0.62159,0.31133 -1.24508,0.61867 -1.86914,0.92578 -0.007,0.003 -0.013,0.007 -0.0195,0.01 -11.81196,5.81177 -24.05896,10.87225 -36.6875,15.10351 -1.88119,0.63031 -3.77028,1.24233 -5.66797,1.83594 -7.35915,2.30198 -14.84362,4.32392 -22.43555,6.0586 -2.13179,0.48709 -4.27102,0.9534 -6.41992,1.39453 -10.05089,2.06322 -20.28792,3.61291 -30.67969,4.63671 -1.973,0.19439 -3.95144,0.36968 -5.93555,0.5254 -0.0189,10e-4 -0.0377,0.004 -0.0566,0.006 -5.45323,0.42694 -10.94684,0.70642 -16.47851,0.83593 -0.008,1.8e-4 -0.0156,-1.8e-4 -0.0234,0 -2.35449,0.0549 -4.71435,0.0918 -7.08203,0.0918 -2.44441,-10e-6 -4.88015,-0.0352 -7.31055,-0.0937 -0.21011,-0.005 -0.42085,-0.006 -0.63086,-0.0117 -2.24272,-0.0587 -4.4788,-0.14791 -6.70898,-0.25586 -0.33327,-0.0161 -0.66702,-0.0297 -1,-0.0469 -2.18837,-0.11321 -4.36923,-0.25391 -6.54492,-0.41407 -0.33342,-0.0245 -0.66689,-0.0466 -1,-0.0723 -0.0248,-0.002 -0.0494,-0.004 -0.0742,-0.006 -2.21521,-0.17105 -4.42358,-0.36673 -6.625,-0.58594 -0.32569,-0.0324 -0.65119,-0.0661 -0.97657,-0.0996 -2.17999,-0.2243 -4.35367,-0.47116 -6.51953,-0.74219 -0.3277,-0.041 -0.65504,-0.0829 -0.98242,-0.125 -2.14951,-0.27623 -4.29275,-0.57276 -6.42773,-0.89453 -0.38268,-0.0577 -0.76429,-0.11861 -1.14649,-0.17773 -2.13645,-0.33051 -4.2674,-0.67907 -6.38867,-1.05469 -0.19308,-0.0342 -0.38517,-0.0709 -0.57812,-0.10547 -2.17987,-0.39045 -4.35047,-0.80267 -6.51368,-1.24023 -0.17302,-0.035 -0.34661,-0.0682 -0.51953,-0.10352 -0.0431,-0.009 -0.0858,-0.0185 -0.1289,-0.0273 -2.12055,-0.43386 -4.23201,-0.89443 -6.33594,-1.37305 -0.26283,-0.0598 -0.5265,-0.11725 -0.78906,-0.17773 -0.0131,-0.003 -0.026,-0.007 -0.0391,-0.01 -2.0777,-0.47891 -4.14612,-0.98377 -6.20703,-1.50586 -0.0188,-0.005 -0.0378,-0.009 -0.0566,-0.0137 -0.36791,-0.0933 -0.73615,-0.18465 -1.10351,-0.2793 -0.009,-0.002 -0.0168,-0.006 -0.0254,-0.008 -1.99201,-0.5134 -3.97547,-1.04824 -5.95118,-1.60156 -0.43058,-0.12059 -0.86121,-0.24081 -1.29101,-0.36328 -0.0131,-0.004 -0.026,-0.008 -0.0391,-0.0117 -1.9216,-0.54786 -3.83466,-1.11399 -5.74024,-1.69922 -0.0265,-0.008 -0.0535,-0.0153 -0.0801,-0.0234 -0.38085,-0.11708 -0.76042,-0.2369 -1.14062,-0.35547 -1.92928,-0.60164 -3.8514,-1.22177 -5.76367,-1.86132 -0.009,-0.003 -0.0184,-0.005 -0.0274,-0.008 -0.44552,-0.14905 -0.8894,-0.30203 -1.33398,-0.45312 -1.88048,-0.6391 -3.75375,-1.2914 -5.61719,-1.9668 -0.013,-0.005 -0.0261,-0.009 -0.0391,-0.0137 -0.41564,-0.15071 -0.82937,-0.30648 -1.24414,-0.45898 -0.0261,-0.01 -0.052,-0.0197 -0.0781,-0.0293 -1.89523,-0.69746 -3.78513,-1.40795 -5.66211,-2.14258 -0.26792,-0.10486 -0.53323,-0.2147 -0.80078,-0.32031 -1.79606,-0.70901 -3.58249,-1.43506 -5.36133,-2.17774 -0.40288,-0.16821 -0.80699,-0.33398 -1.20898,-0.5039 -1.78474,-0.75442 -3.55934,-1.53038 -5.32617,-2.31836 -0.423,-0.18865 -0.84758,-0.3739 -1.26953,-0.56446 -1.74363,-0.78744 -3.47556,-1.59425 -5.20118,-2.41406 -0.011,-0.005 -0.0222,-0.0104 -0.0332,-0.0156 -0.49173,-0.23369 -0.98436,-0.46683 -1.47461,-0.70313 -0.67607,-0.32586 -1.34434,-0.66529 -2.01758,-0.99609 -1.63903,-0.80537 -3.27453,-1.61677 -4.89648,-2.45117 -0.61279,-0.31525 -1.21976,-0.63963 -1.83008,-0.95899 -0.0358,-0.0188 -0.0716,-0.0379 -0.10742,-0.0566 -1.57316,-0.824 -3.14076,-1.6567 -4.69727,-2.50781 -0.66822,-0.36539 -1.33098,-0.73903 -1.99609,-1.10938 -1.50554,-0.83831 -3.0067,-1.68337 -4.49609,-2.54687 -0.0169,-0.01 -0.0339,-0.0195 -0.0508,-0.0293 -0.67737,-0.39289 -1.34947,-0.79335 -2.02344,-1.1914 -1.48761,-0.8786 -2.96856,-1.76638 -4.43946,-2.66993 -0.62995,-0.38697 -1.25791,-0.77645 -1.88476,-1.16796 -0.009,-0.006 -0.0182,-0.0118 -0.0273,-0.0176 -1.49577,-0.93444 -2.98306,-1.88173 -4.46094,-2.8418 -0.60205,-0.3911 -1.2037,-0.78241 -1.80274,-1.17773 -7.5e-4,-5e-4 -10e-4,-10e-4 -0.002,-0.002 -1.53955,-1.016 -3.06844,-2.04623 -4.58789,-3.08984 -0.0177,-0.0122 -0.035,-0.0249 -0.0527,-0.0371 -0.48468,-0.33304 -0.97053,-0.66417 -1.45313,-1 -0.009,-0.006 -0.0181,-0.0131 -0.0273,-0.0195 -1.58681,-1.10448 -3.16046,-2.227 -4.72461,-3.36133 -0.44193,-0.32049 -0.88607,-0.63809 -1.32617,-0.96094 -1.64635,-1.20773 -3.27801,-2.4353 -4.89844,-3.67578 -0.34781,-0.26625 -0.69833,-0.52913 -1.04492,-0.79687 -1.75636,-1.35679 -3.49573,-2.73411 -5.22071,-4.12891 -0.19307,-0.15611 -0.38936,-0.30826 -0.58203,-0.46484 -0.003,-0.003 -0.007,-0.005 -0.01,-0.008 -11.73873,-9.54099 -22.73846,-19.95651 -32.90039,-31.14843 -0.0437,-0.048 -0.0872,-0.0965 -0.13086,-0.14453 h -0.002 C 72.349696,496.32155 43.188203,426.92166 42.625,350.6543 c -0.0045,-0.49516 -0.0071,-0.98968 -0.0098,-1.48438 v -0.7168 C 42.617256,198.64823 129.84994,62.558184 265.96875,0.00195313 Z m 67.61328,646.63086 c 2.43043,0.0586 4.86614,0.0937 7.31055,0.0937 2.36771,0 4.72754,-0.038 7.08203,-0.0918 -2.35388,0.0549 -4.71301,0.0899 -7.08008,0.0899 -2.4449,0 -4.88158,-0.034 -7.3125,-0.0918 z M 510.92773,79.546875 c 0.95768,0.224741 1.91142,0.45871 2.86524,0.693359 -0.95377,-0.234644 -1.90762,-0.468632 -2.86524,-0.693359 z M 449,72.943359 A 211.10913,403.2734 35.702082 0 0 447.75391,73.595703 211.10913,403.2734 35.702082 0 1 449,72.943359 Z m -23.08594,12.988282 a 211.10913,403.2734 35.702082 0 0 -1.02148,0.617187 211.10913,403.2734 35.702082 0 1 1.02148,-0.617187 z m -25.91797,16.787109 a 211.10913,403.2734 35.702082 0 0 -1.16406,0.80859 211.10913,403.2734 35.702082 0 1 1.16406,-0.80859 z m -23.13476,16.94531 a 211.10913,403.2734 35.702082 0 0 -1.35547,1.05078 211.10913,403.2734 35.702082 0 0 -0.9082,0.70899 211.10913,403.2734 35.702082 0 1 0.9082,-0.70899 211.10913,403.2734 35.702082 0 1 1.35547,-1.05078 z m -26.93945,22.11328 a 211.10913,403.2734 35.702082 0 0 -1.2793,1.11524 211.10913,403.2734 35.702082 0 1 1.2793,-1.11524 z m 348.0664,95.1836 a 211.10913,403.2734 35.702082 0 1 -0.18359,1.48047 211.10913,403.2734 35.702082 0 0 0.18359,-1.48047 z m -1.28125,9.50976 a 211.10913,403.2734 35.702082 0 1 -0.13672,0.91407 211.10913,403.2734 35.702082 0 0 0.13672,-0.91407 z m -0.6875,4.48047 a 211.10913,403.2734 35.702082 0 1 -0.15234,0.94727 211.10913,403.2734 35.702082 0 0 0.15234,-0.94727 z m -5.64844,28.99219 a 211.10913,403.2734 35.702082 0 1 -0.26171,1.13672 211.10913,403.2734 35.702082 0 0 0.26171,-1.13672 z m -1.81445,7.61914 a 211.10913,403.2734 35.702082 0 1 -0.32226,1.30469 211.10913,403.2734 35.702082 0 0 0.32226,-1.30469 z m -1.54102,6.07227 a 211.10913,403.2734 35.702082 0 1 -0.41406,1.58007 211.10913,403.2734 35.702082 0 0 0.41406,-1.58007 z m -472.01171,5.72851 a 211.10913,403.2734 35.702082 0 0 -0.95313,1.49219 211.10913,403.2734 35.702082 0 1 0.95313,-1.49219 z m 469.875,2.20899 a 211.10913,403.2734 35.702082 0 1 -0.43946,1.56835 211.10913,403.2734 35.702082 0 0 0.43946,-1.56835 z m -475.18555,6.20117 a 211.10913,403.2734 35.702082 0 0 -0.64844,1.04101 211.10913,403.2734 35.702082 0 1 0.64844,-1.04101 z m 471.44336,6.61133 a 211.10913,403.2734 35.702082 0 1 -0.4707,1.5332 211.10913,403.2734 35.702082 0 0 0.4707,-1.5332 z m -484.52539,15.21679 a 211.10913,403.2734 35.702082 0 0 -0.72852,1.26563 211.10913,403.2734 35.702082 0 1 0.72852,-1.26563 z m -14.29297,26.00391 a 211.10913,403.2734 35.702082 0 0 -0.78516,1.50586 211.10913,403.2734 35.702082 0 1 0.78516,-1.50586 z m 479.50195,12.26758 a 211.10913,403.2734 35.702082 0 1 -0.68359,1.63672 211.10913,403.2734 35.702082 0 0 0.68359,-1.63672 z m -495.56445,20.48242 a 211.10913,403.2734 35.702082 0 0 -0.7168,1.56836 211.10913,403.2734 35.702082 0 1 0.7168,-1.56836 z m 484.54297,4.54492 a 211.10913,403.2734 35.702082 0 1 -0.5586,1.19922 211.10913,403.2734 35.702082 0 0 0.5586,-1.19922 z m -3.79688,8.02734 a 211.10913,403.2734 35.702082 0 1 -0.66211,1.36915 211.10913,403.2734 35.702082 0 0 0.66211,-1.36915 z m -19.36328,37.33399 a 211.10913,403.2734 35.702082 0 1 -0.8789,1.57422 211.10913,403.2734 35.702082 0 0 0.8789,-1.57422 z M 119.87695,548.73828 c 0,0 0.002,0 0.002,0 a 211.10913,403.2734 35.702082 0 0 -0.0293,0.29297 211.10913,403.2734 35.702082 0 1 0.0273,-0.29297 z m -0.14062,1.45313 a 211.10913,403.2734 35.702082 0 0 -0.13477,1.45312 211.10913,403.2734 35.702082 0 1 0.13477,-1.45312 z m -0.38672,4.34765 a 211.10913,403.2734 35.702082 0 0 -0.11719,1.44336 211.10913,403.2734 35.702082 0 0 -0.18359,2.44922 211.10913,403.2734 35.702082 0 1 0.18359,-2.44922 211.10913,403.2734 35.702082 0 1 0.11719,-1.44336 z m -0.60352,8.59961 a 211.10913,403.2734 35.702082 0 0 -0.0781,1.41992 211.10913,403.2734 35.702082 0 1 0.0781,-1.41992 z m -0.37304,8.46094 a 211.10913,403.2734 35.702082 0 0 -0.0391,1.31836 211.10913,403.2734 35.702082 0 1 0.0391,-1.31836 z m -0.041,1.42383 a 211.10913,403.2734 35.702082 0 0 -0.0254,1.0039 211.10913,403.2734 35.702082 0 1 0.0254,-1.0039 z m -0.0879,10.99414 a 211.10913,403.2734 35.702082 0 0 0.0176,1.35742 211.10913,403.2734 35.702082 0 1 -0.0176,-1.35742 z m 0.0723,4.0625 a 211.10913,403.2734 35.702082 0 0 0.0371,1.3457 211.10913,403.2734 35.702082 0 1 -0.0371,-1.3457 z m 0.1875,5.39453 a 211.10913,403.2734 35.702082 0 0 0.043,0.91797 211.10913,403.2734 35.702082 0 1 -0.043,-0.91797 z m 0.20703,3.9668 a 211.10913,403.2734 35.702082 0 0 0.0801,1.27929 211.10913,403.2734 35.702082 0 0 0.0879,1.3086 211.10913,403.2734 35.702082 0 0 0.0918,1.27343 211.10913,403.2734 35.702082 0 1 -0.0918,-1.27343 211.10913,403.2734 35.702082 0 1 -0.0879,-1.3086 211.10913,403.2734 35.702082 0 1 -0.0801,-1.27929 z m 0.26172,3.90234 a 211.10913,403.2734 35.702082 0 0 0.20898,2.58594 211.10913,403.2734 35.702082 0 0 0.11328,1.29101 211.10913,403.2734 35.702082 0 1 -0.11328,-1.29101 211.10913,403.2734 35.702082 0 1 -0.20898,-2.58594 z m 0.56836,6.44531 a 211.10913,403.2734 35.702082 0 0 0.13281,1.27539 211.10913,403.2734 35.702082 0 1 -0.13281,-1.27539 z m 378.21093,1.26367 a 211.10913,403.2734 35.702082 0 1 -1.20312,1.17579 211.10913,403.2734 35.702082 0 0 1.20312,-1.17579 z m -377.93945,1.28321 a 211.10913,403.2734 35.702082 0 0 0.10938,0.95703 211.10913,403.2734 35.702082 0 1 -0.10938,-0.95703 z m 0.45508,3.78515 a 211.10913,403.2734 35.702082 0 0 0.16406,1.25196 211.10913,403.2734 35.702082 0 0 0.16016,1.17187 211.10913,403.2734 35.702082 0 1 -0.16016,-1.17187 211.10913,403.2734 35.702082 0 1 -0.16406,-1.25196 z m 0.33789,2.52539 a 211.10913,403.2734 35.702082 0 0 0.125,0.88086 211.10913,403.2734 35.702082 0 1 -0.125,-0.88086 z m 342.86719,23.73243 a 211.10913,403.2734 35.702082 0 1 -1.01954,0.86328 211.10913,403.2734 35.702082 0 0 1.01954,-0.86328 z m -15.02149,12.35937 a 211.10913,403.2734 35.702082 0 1 -1.06836,0.84766 211.10913,403.2734 35.702082 0 0 1.06836,-0.84766 z m -7.92187,6.19531 a 211.10913,403.2734 35.702082 0 1 -1.12696,0.86329 211.10913,403.2734 35.702082 0 0 1.12696,-0.86329 z m -27.23438,19.625 a 211.10913,403.2734 35.702082 0 1 -1.28711,0.86524 211.10913,403.2734 35.702082 0 0 1.28711,-0.86524 z m -4.09375,2.72852 a 211.10913,403.2734 35.702082 0 1 -1.19531,0.78516 211.10913,403.2734 35.702082 0 0 1.19531,-0.78516 z m -15.21094,9.63086 a 211.10913,403.2734 35.702082 0 1 -1.03515,0.62695 211.10913,403.2734 35.702082 0 0 1.03515,-0.62695 z m -3.88085,2.32812 a 211.10913,403.2734 35.702082 0 1 -1.32032,0.78125 211.10913,403.2734 35.702082 0 0 1.32032,-0.78125 z m -17.6543,9.93164 a 211.10913,403.2734 35.702082 0 1 -1.1582,0.61329 211.10913,403.2734 35.702082 0 0 1.1582,-0.61329 z m -6.85938,3.5625 a 211.10913,403.2734 35.702082 0 1 -1.24804,0.63086 211.10913,403.2734 35.702082 0 1 -1.32227,0.66016 211.10913,403.2734 35.702082 0 0 1.32227,-0.66016 211.10913,403.2734 35.702082 0 0 1.24804,-0.63086 z m -7.97656,3.93165 a 211.10913,403.2734 35.702082 0 1 -1.30664,0.625 211.10913,403.2734 35.702082 0 0 1.30664,-0.625 z"
       transform="matrix(0.26458333,0,0,0.26458333,12.844288,-1.2612851)" />
    <path
       id="path901"
       style="fill:#5a9cfe;stroke-width:0.350228"
       d="m -82.100208,49.981847 c -12.95902,0.0032 -25.746342,3.374278 -37.146252,9.27907 a 73.767612,73.767612 0 0 0 -37.08992,64.003143 73.767612,73.767612 0 0 0 6.719,30.75953 c 9.92028,10.53965 24.79253,16.03291 39.35233,15.71127 24.905892,-2.2e-4 45.095572,-21.50032 45.095162,-46.4062 3e-4,-9.69604 -7.85958,-17.55643 -17.55562,-17.55613 -9.69559,3.3e-4 -10.04676,8.24346 -10.04646,17.93905 3.5e-4,9.69511 0.11723,10.14845 9.04291,10.6206 2.86695,0.15164 5.85949,4.61664 7.3722,2.56317 -7.37333,10.62138 -20.9784,20.2546 -33.908192,20.25519 -18.67953,1.6e-4 -33.82255,-15.14237 -33.8224,-33.82188 -5.9e-4,-0.085 -0.001,-0.17032 -0.001,-0.25528 -3e-5,-31.132238 25.23773,-56.370015 56.369982,-56.369986 31.13224,-2.9e-5 56.37,25.237748 56.36998,56.369986 -2.8e-4,0.0634 -6.2e-4,0.12651 -0.001,0.18965 -0.0814,33.80798 -21.41497,62.60476 -51.33564,73.76849 a 73.767612,73.767612 0 0 0 0.11627,5.2e-4 73.767612,73.767612 0 0 0 73.7617797,-72.86002 c 0.003,-0.30241 0.006,-0.60488 0.006,-0.90796 10e-6,-0.62479 -0.008,-1.24759 -0.0232,-1.86863 a 73.767612,73.767612 0 0 0 -0.002,-0.0568 c -0.0151,-0.58649 -0.0373,-1.17093 -0.0661,-1.7539 a 73.767612,73.767612 0 0 0 -5.2e-4,-0.01 73.767612,73.767612 0 0 0 -0.0103,-0.19844 c -0.0269,-0.5149 -0.0602,-1.02794 -0.0977,-1.53997 a 73.767612,73.767612 0 0 0 -0.0341,-0.44286 c -0.0351,-0.44259 -0.0749,-0.88415 -0.11781,-1.32448 a 73.767612,73.767612 0 0 0 -0.0563,-0.55811 73.767612,73.767612 0 0 0 -0.005,-0.0413 c -0.0405,-0.38356 -0.0848,-0.76597 -0.13126,-1.14774 a 73.767612,73.767612 0 0 0 -0.11007,-0.86093 c -0.0356,-0.26664 -0.0731,-0.53269 -0.11162,-0.79841 a 73.767612,73.767612 0 0 0 -0.18243,-1.18959 c -6.4e-4,-0.004 -0.001,-0.008 -0.002,-0.0119 -0.0249,-0.1537 -0.0506,-0.30707 -0.0765,-0.46044 a 73.767612,73.767612 0 0 0 -0.2439097,-1.36944 73.767612,73.767612 0 0 0 -0.001,-0.004 c -0.032,-0.1702 -0.0645,-0.34026 -0.0977,-0.51004 a 73.767612,73.767612 0 0 0 -0.23513,-1.15446 c -0.0534,-0.25127 -0.10787,-0.5021 -0.16381,-0.75241 a 73.767612,73.767612 0 0 0 -0.19327,-0.84544 c -3.3e-4,-10e-4 -7.1e-4,-0.003 -10e-4,-0.004 -0.09,-0.38101 -0.18213,-0.76129 -0.27802,-1.13998 a 73.767612,73.767612 0 0 0 -0.13125,-0.51108 c -0.12462,-0.47758 -0.25207,-0.95411 -0.38604,-1.42783 a 73.767612,73.767612 0 0 0 -0.0387,-0.13746 c -0.002,-0.007 -0.004,-0.0131 -0.006,-0.0196 -8.74975,-30.679933 -36.99017,-53.142439 -70.47773,-53.142622 h -0.0176 z" />
    <path
       id="path2725"
       style="fill:#ffc107;stroke-width:0.324591"
       d="M 131.99994,17.85222 A 55.855957,106.69942 35.702082 0 0 101.0995,40.14595 c 7.40497,-3.57661 15.71128,-5.58209 24.48585,-5.58209 31.13208,-3e-5 56.36971,25.23762 56.36968,56.36969 -2.6e-4,0.0634 -5.3e-4,0.12651 -0.001,0.18965 -0.0221,9.17359 -1.61459,17.97624 -4.5129,26.16017 a 55.855957,106.69942 35.702082 0 0 0.0171,-0.0289 55.855957,106.69942 35.702082 0 0 20.20703,-57.06784 C 186.10396,35.39836 161.08398,18.15535 131.99994,17.85222 Z m -1.42162,55.78058 c -9.69554,2.6e-4 -10.04671,8.24341 -10.04641,17.93895 2.6e-4,9.69506 0.11723,10.14841 9.04286,10.62055 2.86695,0.15165 5.85946,4.61661 7.37216,2.56315 -7.37329,10.62133 -20.97829,20.2545 -33.90801,20.25509 -18.679434,1.6e-4 -33.822377,-15.14229 -33.822226,-33.82171 -5.82e-4,-0.085 -0.001,-0.17032 -0.001,-0.25528 -5e-6,-5.38329 0.755502,-10.58971 2.164725,-15.5205 a 55.855957,106.69942 35.702082 0 0 -6.515915,10.53269 55.855957,106.69942 35.702082 0 0 -10.374046,20.89692 c 7.155485,20.24893 28.158211,31.20257 48.548462,30.75213 24.90576,-2.2e-4 45.09533,-21.50021 45.09492,-46.40596 2.7e-4,-9.69599 -7.85953,-17.55633 -17.55552,-17.55603 z m -86.015936,70.29183 a 55.855957,106.69942 35.702082 0 0 0.297138,18.68413 c 0.329843,0.29445 0.658818,0.58969 0.992706,0.87954 h 0.001 c 0.319759,0.2779 0.641384,0.55369 0.9648,0.82733 h 0.0016 c 0.161509,0.13687 0.323344,0.27299 0.485756,0.40877 h 0.001 c 0.1623,0.13574 0.325155,0.27103 0.488341,0.40566 h 10e-4 c 0.163449,0.13461 0.327615,0.26857 0.491958,0.40204 0.329152,0.26708 0.660038,0.53209 0.992706,0.79477 0.166198,0.13146 0.332658,0.26242 0.499711,0.39274 h 0.001 c 1.002739,0.78145 2.021044,1.54267 3.054075,2.28359 h 0.0016 c 0.344434,0.24698 0.690501,0.49141 1.03818,0.7338 0.173595,0.12132 0.347527,0.24257 0.521932,0.36278 h 10e-4 c 0.523518,0.35984 1.050735,0.71413 1.581301,1.0635 h 10e-4 c 0.176731,0.11679 0.35374,0.23277 0.531236,0.3483 h 0.0015 c 0.532974,0.34595 1.068933,0.6869 1.608685,1.02216 h 0.0016 c 0.359738,0.22367 0.720981,0.44505 1.083656,0.66404 h 10e-4 c 0.181015,0.10935 0.362411,0.21786 0.544153,0.32608 h 10e-4 c 0.546394,0.32433 1.096254,0.64366 1.648995,0.95704 h 0.001 c 0.368382,0.20903 0.738374,0.41543 1.109495,0.61961 h 0.001 c 0.18532,0.10237 0.371084,0.20419 0.557073,0.3054 h 0.001 c 0.372311,0.2018 0.745906,0.40113 1.120863,0.5979 h 0.0015 c 0.375071,0.19662 0.750975,0.39069 1.128615,0.58239 h 0.0016 c 1.511907,0.76681 3.043582,1.49314 4.594035,2.17868 h 0.0016 c 0.387274,0.17159 0.775275,0.34059 1.164786,0.50695 h 0.0016 c 0.58443,0.24936 1.171342,0.49303 1.760614,0.7307 h 0.0011 c 0.392797,0.15829 0.786458,0.31402 1.181322,0.46715 h 0.0016 c 0.197046,0.0767 0.39414,0.15293 0.591696,0.22842 h 0.0016 c 0.197835,0.0753 0.395947,0.1498 0.594278,0.22376 h 0.0011 c 0.198215,0.074 0.396597,0.1473 0.595312,0.22014 h 0.0011 c 0.198622,0.0726 0.397769,0.14424 0.596863,0.21549 h 0.0011 c 0.398724,0.14295 0.798309,0.28311 1.198893,0.42064 h 0.0016 c 0.200175,0.0685 0.400362,0.13694 0.600993,0.20412 h 0.0011 c 0.200586,0.0674 0.401524,0.13444 0.602546,0.20051 h 0.0011 c 0.200967,0.0658 0.402174,0.13085 0.60358,0.19534 h 0.0016 c 0.201374,0.0647 0.402823,0.12916 0.60461,0.19275 h 0.0011 c 0.40427,0.12649 0.809511,0.25034 1.215432,0.37155 0.609182,0.18197 1.220277,0.35777 1.83296,0.52761 0.204105,0.0566 0.4084,0.11271 0.612883,0.16796 h 0.0011 c 0.528581,0.14273 1.058619,0.28123 1.589569,0.41496 l 0.015,0.005 c 7.137837,1.7956 14.456842,2.76179 21.812629,2.88199 a 55.855957,106.69942 35.702082 0 0 42.72926,-32.46416 c -13.09592,9.66196 -29.2821,15.37504 -46.80179,15.37529 -23.178117,-1.1e-4 -44.032777,-9.99823 -58.475932,-25.92608 z" />
    <circle
       style="fill:#106e7d;stroke-width:0.40858"
       id="path881"
       cx="131.15802"
       cy="89.773003"
       r="16.919844" />
  </g>
</svg>
