<?xml version="1.0" encoding="UTF-8" standalone="no"?>
<svg
   xmlns:dc="http://purl.org/dc/elements/1.1/"
   xmlns:cc="http://creativecommons.org/ns#"
   xmlns:rdf="http://www.w3.org/1999/02/22-rdf-syntax-ns#"
   xmlns:svg="http://www.w3.org/2000/svg"
   xmlns="http://www.w3.org/2000/svg"
   xmlns:sodipodi="http://sodipodi.sourceforge.net/DTD/sodipodi-0.dtd"
   xmlns:inkscape="http://www.inkscape.org/namespaces/inkscape"
   width="191.65771mm"
   height="188.21457mm"
   viewBox="0 0 191.65771 188.21457"
   version="1.1"
   id="svg893"
   sodipodi:docname="mc-logo-bludot.svg"
   inkscape:version="1.0.1 (3bc2e813f5, 2020-09-07)">
  <defs
     id="defs887" />
  <sodipodi:namedview
     id="base"
     pagecolor="#ffffff"
     bordercolor="#666666"
     borderopacity="1.0"
     inkscape:pageopacity="0.0"
     inkscape:pageshadow="2"
     inkscape:zoom="1.4"
     inkscape:cx="388.98822"
     inkscape:cy="367.71194"
     inkscape:document-units="mm"
     inkscape:current-layer="layer1"
     inkscape:document-rotation="0"
     showgrid="false"
     inkscape:object-paths="true"
     inkscape:snap-intersection-paths="true"
     inkscape:snap-smooth-nodes="true"
     inkscape:snap-midpoints="true"
     inkscape:window-width="2560"
     inkscape:window-height="1416"
     inkscape:window-x="0"
     inkscape:window-y="0"
     inkscape:window-maximized="0"
     fit-margin-top="0"
     fit-margin-left="0"
     fit-margin-right="0"
     fit-margin-bottom="0" />
  <metadata
     id="metadata890">
    <rdf:RDF>
      <cc:Work
         rdf:about="">
        <dc:format>image/svg+xml</dc:format>
        <dc:type
           rdf:resource="http://purl.org/dc/dcmitype/StillImage" />
        <dc:title></dc:title>
      </cc:Work>
    </rdf:RDF>
  </metadata>
  <g
     inkscape:label="Layer 1"
     inkscape:groupmode="layer"
     id="layer1"
     transform="translate(-12.844288,1.2612851)">
    <path
       id="path1460"
       style="opacity:1;fill:#bfbfbf;stroke-width:0.680504"
       d="m 83.213648,-1.2612851 c -41.57,11.4556501 -70.369353,49.2648961 -70.36936,92.3844761 2.5e-5,2.33154 0.08514,4.6623 0.25518,6.98764 0.03096,0.42279 0.06478,0.84538 0.101375,1.26773 0.03472,0.40378 0.07202,0.807319 0.11186,1.210629 l 0.0059,0.0548 v 0.001 c 0.40032,4.00808 1.05296,7.98696 1.954025,11.91291 0.09475,0.4131 0.192242,0.82561 0.292458,1.23743 0.250595,1.02935 0.518237,2.05446 0.802822,3.07493 0.113799,0.40859 0.230326,0.81641 0.349552,1.22345 0.23859,0.81348 0.487964,1.62373 0.748056,2.43058 0.130168,0.40327 0.262995,0.80566 0.398496,1.20715 0.06769,0.20112 0.136054,0.40182 0.205073,0.60241 0.137947,0.40058 0.278548,0.80024 0.421797,1.19898 0.143404,0.39907 0.289431,0.79717 0.438111,1.19431 0.148838,0.39677 0.300328,0.79256 0.454424,1.18732 0.153911,0.39488 0.310436,0.78873 0.469572,1.18151 0.318204,0.78579 0.646815,1.56732 0.985754,2.34436 0.169492,0.38877 0.341548,0.77639 0.516178,1.16288 0.436569,0.96521 0.889115,1.92313 1.357446,2.87334 0.280978,0.57068 0.567626,1.13855 0.859913,1.70351 0.487087,0.94083 0.989741,1.8735 1.507755,2.79764 0.207282,0.36997 0.417026,0.73856 0.629205,1.10577 0.106201,0.18331 0.21301,0.36622 0.320427,0.54879 0.214295,0.36575 0.431033,0.73008 0.650173,1.09296 0.109718,0.18128 0.220022,0.36234 0.330917,0.54297 0.332927,0.54167 0.671239,1.08002 1.014879,1.61495 0.228741,0.35652 0.459843,0.71154 0.693289,1.065 0.233805,0.35382 0.469955,0.70611 0.708437,1.05681 0.119052,0.1752 0.238673,0.34997 0.358877,0.52435 0.240831,0.34884 0.483974,0.69605 0.729411,1.04167 0.735783,1.03722 1.492142,2.05967 2.268624,3.06679 0.258783,0.33574 0.519792,0.66979 0.783009,1.00205 0.526462,0.66464 1.061715,1.32225 1.605634,1.97266 0.272064,0.32499 0.546275,0.64814 0.822628,0.96945 0.138128,0.16076 0.276781,0.32128 0.415969,0.48124 0.278314,0.31957 0.558741,0.63726 0.84127,0.95311 0.28261,0.31572 0.56731,0.62954 0.854084,0.94149 0.286905,0.31224 0.575876,0.62257 0.866898,0.93097 0.290815,0.30839 0.583675,0.61484 0.878556,0.91935 0.147462,0.15197 0.295455,0.30345 0.443939,0.45443 0.148635,0.15129 0.297787,0.30189 0.447432,0.45208 0.298635,0.30067 0.599262,0.59934 0.901859,0.89603 h 0.0012 c 0.150981,0.14814 0.302466,0.29569 0.454427,0.44277 h 0.0012 c 0.152152,0.14724 0.30479,0.29413 0.457921,0.44045 h 0.0012 c 0.152942,0.14611 0.306355,0.29179 0.460252,0.43695 h 0.0012 c 0.154092,0.14543 0.308689,0.29026 0.46375,0.43461 h 0.0012 c 0.310371,0.28832 0.622649,0.57456 0.936812,0.85873 0.471583,0.42616 0.947396,0.84758 1.42736,1.26424 h 0.0012 c 0.31976,0.2779 0.641364,0.55366 0.96478,0.8273 h 0.0012 c 0.16151,0.13686 0.323476,0.27319 0.485888,0.40897 h 0.0012 c 0.1623,0.13574 0.325029,0.27087 0.488217,0.4055 h 0.0012 c 0.163449,0.13461 0.327367,0.26852 0.491711,0.40198 0.329151,0.26708 0.660072,0.53197 0.99274,0.79466 0.1662,0.13145 0.332815,0.26234 0.499867,0.39267 h 0.0012 c 1.002739,0.78144 2.020931,1.54285 3.053964,2.28378 h 0.0012 c 0.344434,0.24698 0.690509,0.49167 1.038187,0.73406 0.173596,0.12131 0.347602,0.24217 0.522007,0.36237 h 0.0012 c 0.523516,0.35984 1.050598,0.71447 1.581164,1.06383 h 0.0012 c 0.176729,0.11679 0.353836,0.23285 0.53133,0.34838 h 0.0012 c 0.532976,0.34595 1.069377,0.68661 1.609131,1.02187 h 0.0012 c 0.359737,0.22367 0.720957,0.44518 1.08363,0.66417 h 0.0012 c 0.181014,0.10935 0.362402,0.21804 0.544144,0.32626 h 0.0012 c 0.546394,0.32433 1.096002,0.64323 1.648743,0.95662 h 0.0012 c 0.368382,0.20902 0.738139,0.41571 1.109258,0.61988 h 0.0012 c 0.18532,0.10237 0.370975,0.20406 0.556965,0.30528 h 0.0012 c 0.372311,0.2018 0.74596,0.40097 1.120915,0.59774 h 0.0012 c 0.37507,0.19662 0.751431,0.39089 1.129071,0.58259 h 0.0012 c 1.511905,0.76681 3.043892,1.49337 4.594345,2.17891 h 0.0012 c 0.387274,0.17159 0.775676,0.34049 1.165188,0.50685 h 0.0012 c 0.584431,0.24936 1.171332,0.4929 1.760608,0.73057 h 0.0012 c 0.392799,0.15829 0.786641,0.31412 1.181506,0.46726 h 0.0012 c 0.197046,0.0767 0.394362,0.15288 0.591919,0.22837 h 0.0012 c 0.197834,0.0753 0.395919,0.14971 0.59425,0.22367 h 0.0012 c 0.198217,0.074 0.396699,0.14746 0.595413,0.22029 h 0.0012 c 0.198623,0.0726 0.397482,0.14431 0.596577,0.21556 h 0.0012 c 0.398726,0.14295 0.798397,0.28309 1.198982,0.42063 h 0.0012 c 0.200179,0.0685 0.400602,0.13664 0.601237,0.20383 h 0.0012 c 0.200585,0.0674 0.401378,0.13439 0.602401,0.20045 h 0.0012 c 0.200968,0.0658 0.402158,0.13123 0.603564,0.19572 h 0.0012 c 0.201375,0.0647 0.402945,0.12874 0.604732,0.19233 h 0.0012 c 0.404271,0.12649 0.809377,0.25048 1.215296,0.3717 0.609183,0.18196 1.220161,0.35797 1.832846,0.52782 0.204103,0.0566 0.408404,0.11252 0.612888,0.16776 h 0.0012 c 0.52858,0.14273 1.058377,0.28108 1.589326,0.41481 l 0.01511,0.005 c 7.643299,1.92276 15.494616,2.89527 23.376056,2.89548 52.9249,3.1e-4 95.82908,-42.90387 95.82877,-95.828759 5.7e-4,-40.47272 -32.80807,-73.281879 -73.27986,-73.2821 h -0.0176 -0.001 c -40.464965,0.0099 -79.280272,32.8162 -79.280272,73.28118 v 0.0652 h 0.0025 c -0.110253,30.175729 25.968017,46.961699 51.112952,46.406219 24.90576,-2.2e-4 45.09562,-21.50047 45.09521,-46.406219 3e-4,-9.69599 -7.85994,-17.55623 -17.55593,-17.55593 -9.69554,3.3e-4 -10.0465,8.243534 -10.0462,17.939074 3.5e-4,9.695055 0.1173,10.148405 9.04293,10.620545 2.86695,0.15165 5.85954,4.6163 7.37223,2.56284 -7.37329,10.62133 -20.97852,20.25485 -33.90824,20.25544 -18.679432,1.6e-4 -33.822139,-15.14255 -33.82199,-33.821969 -5.8e-4,-0.085 -0.0012,-0.17024 -0.0012,-0.2552 -3.2e-5,-31.13207 25.23751,-56.36961 56.36959,-56.36958 31.13208,-3e-5 56.36962,25.23751 56.36959,56.36958 -2.8e-4,0.0634 -5.9e-4,0.12672 -0.001,0.18986 -0.1048,43.510059 -35.40582,78.726659 -78.91603,78.727269 -43.357316,-1.8e-4 -78.594704,-34.97847 -78.91487,-78.334599 -0.0012,-0.13101 -0.0018,-0.26178 -0.0025,-0.39267 v -0.18986 c 3.45e-4,-39.63588 23.080312,-75.643107 59.09508,-92.1944431 z"
       sodipodi:nodetypes="cssccccssccccsscccscccscccccssccsscccccccscccccccccccccccccccccccccccccccccccccccccccccccccccccccccccccccccccccccccccssccccccscssccccsssccccscccccscc" />
    <path
       id="path901"
       style="fill:#bfbfbf;stroke-width:0.350226"
       d="m 131.2033,17.842572 c -12.95895,0.0032 -25.7462,3.37426 -37.146054,9.279021 a 73.767227,73.767227 0 0 0 -37.08973,64.002807 73.767227,73.767227 0 0 0 6.718972,30.75937 c 9.920228,10.5396 24.792398,16.03283 39.352122,15.71119 24.90576,-2.2e-4 45.09533,-21.50021 45.09492,-46.40596 3e-4,-9.695991 -7.85953,-17.556335 -17.55552,-17.556036 -9.69554,3.3e-4 -10.04671,8.243416 -10.04641,17.938956 3.5e-4,9.69506 0.11723,10.1484 9.04286,10.62055 2.86694,0.15164 5.85946,4.61661 7.37216,2.56315 -7.37329,10.62133 -20.97829,20.2545 -33.90801,20.25509 -18.679434,1.6e-4 -33.822374,-15.14229 -33.822224,-33.82171 -5.9e-4,-0.085 -0.001,-0.17032 -0.001,-0.25528 -3e-5,-31.132072 25.2376,-56.369718 56.369684,-56.369689 31.13208,-2.9e-5 56.36971,25.237617 56.36969,56.369689 -2.8e-4,0.0634 -6.2e-4,0.12651 -0.001,0.18965 -0.0814,33.80781 -21.41486,62.60444 -51.33537,73.76811 a 73.767227,73.767227 0 0 0 0.11627,5.2e-4 73.767227,73.767227 0 0 0 73.76139,-72.85964 c 0.003,-0.30241 0.006,-0.60488 0.006,-0.90796 1e-5,-0.62478 -0.008,-1.24758 -0.0232,-1.86862 a 73.767227,73.767227 0 0 0 -0.002,-0.0568 c -0.0151,-0.58648 -0.0373,-1.17092 -0.0661,-1.75389 a 73.767227,73.767227 0 0 0 -5.2e-4,-0.01 73.767227,73.767227 0 0 0 -0.0103,-0.19844 c -0.0269,-0.51489 -0.0602,-1.02793 -0.0977,-1.53996 a 73.767227,73.767227 0 0 0 -0.0341,-0.44286 c -0.0351,-0.44259 -0.0749,-0.88414 -0.11781,-1.324471 a 73.767227,73.767227 0 0 0 -0.0563,-0.558107 73.767227,73.767227 0 0 0 -0.005,-0.04134 c -0.0405,-0.383561 -0.0848,-0.765961 -0.13126,-1.147733 a 73.767227,73.767227 0 0 0 -0.11007,-0.860928 c -0.0356,-0.266637 -0.0731,-0.532683 -0.11162,-0.798402 a 73.767227,73.767227 0 0 0 -0.18242,-1.18959 c -6.4e-4,-0.004 -0.001,-0.0079 -0.002,-0.01189 -0.0249,-0.153694 -0.0506,-0.307065 -0.0765,-0.460436 a 73.767227,73.767227 0 0 0 -0.24391,-1.369425 73.767227,73.767227 0 0 0 -0.001,-0.0041 c -0.032,-0.170201 -0.0645,-0.34026 -0.0977,-0.510045 a 73.767227,73.767227 0 0 0 -0.23513,-1.154451 c -0.0534,-0.251273 -0.10787,-0.502098 -0.16381,-0.752409 a 73.767227,73.767227 0 0 0 -0.19327,-0.845429 c -3.3e-4,-0.0014 -7.1e-4,-0.0027 -0.001,-0.0041 -0.09,-0.381015 -0.18213,-0.76129 -0.27802,-1.139981 a 73.767227,73.767227 0 0 0 -0.13125,-0.511079 c -0.12462,-0.477576 -0.25207,-0.954096 -0.38603,-1.427822 a 73.767227,73.767227 0 0 0 -0.0387,-0.137459 c -0.002,-0.0066 -0.004,-0.01307 -0.006,-0.01964 -8.74971,-30.679771 -36.98998,-53.142159 -70.47737,-53.142342 h -0.0176 z" />
    <circle
       style="fill:#000000;stroke-width:0.408581"
       id="path881"
       cx="131.15787"
       cy="89.772911"
       r="16.919844" />
  </g>
</svg>
